<mxfile host="app.diagrams.net" modified="2023-12-04T00:14:34.658Z" agent="Mozilla/5.0 (Windows NT 10.0; Win64; x64) AppleWebKit/537.36 (KHTML, like Gecko) Chrome/119.0.0.0 Safari/537.36 Edg/119.0.0.0" etag="WW3_HPDsdM_NmiX-4SQK" version="22.1.5" type="device" pages="2">
  <diagram name="Страница — 1" id="o3sYmgAIau1fM3dsohi6">
    <mxGraphModel dx="1804" dy="933" grid="1" gridSize="10" guides="1" tooltips="1" connect="1" arrows="1" fold="1" page="1" pageScale="1" pageWidth="3300" pageHeight="2339" math="0" shadow="0">
      <root>
        <mxCell id="0" />
        <mxCell id="1" parent="0" />
        <mxCell id="QvXpTpCXxzrsCJCGJff7-32" value="" style="shape=image;imageAspect=0;verticalLabelPosition=bottom;verticalAlign=top;image=data:image/png,iVBORw0KGgoAAAANSUhEUgAAA48AAALnCAYAAAApuXKMAAAAAXNSR0IArs4c6QAACfl0RVh0bXhmaWxlACUzQ214ZmlsZSUyMGhvc3QlM0QlMjJhcHAuZGlhZ3JhbXMubmV0JTIyJTIwbW9kaWZpZWQlM0QlMjIyMDIzLTEyLTAzVDIzJTNBNTklM0E1OC4yOTFaJTIyJTIwYWdlbnQlM0QlMjJNb3ppbGxhJTJGNS4wJTIwKFdpbmRvd3MlMjBOVCUyMDEwLjAlM0IlMjBXaW42NCUzQiUyMHg2NCklMjBBcHBsZVdlYktpdCUyRjUzNy4zNiUyMChLSFRNTCUyQyUyMGxpa2UlMjBHZWNrbyklMjBDaHJvbWUlMkYxMTkuMC4wLjAlMjBTYWZhcmklMkY1MzcuMzYlMjBFZGclMkYxMTkuMC4wLjAlMjIlMjBldGFnJTNEJTIyekcwR01EcmprTHluN3o2SGRMZEclMjIlMjB2ZXJzaW9uJTNEJTIyMjIuMS41JTIyJTIwdHlwZSUzRCUyMmRldmljZSUyMiUyMHBhZ2VzJTNEJTIyMiUyMiUzRSUzQ2RpYWdyYW0lMjBpZCUzRCUyMlkweTNjS3YtNEEyYUlNSElhMGtpJTIyJTIwbmFtZSUzRCUyMlBhZ2UtMSUyMiUzRTdadmRscUk0RUlDZmhzdnVReElVdUFURTd0NGRkWTlOeiUyQnd0STJubExJS0xjYlQzNlRjRWdtQXlzOHdNMGRGZUx4Q0w4UGRWcFZLVmxCcnkxb2VIUE55c0psbUVFdzNxMFVGREl3MUNhSmdHJTJGU29rYjZVRTJJWmVTcFo1SEZXeW8lMkJBNSUyRmdkWFF0NXNGMGQ0MjJwSXNpd2g4YVl0WEdScGloZWtKUXZ6UE51M203MW1TZnV1bTNDSkJjSHpJa3hFNmFjNElxdFNhZzMwbyUyRndSeDhzVnZ6UFFxeVBya0RldUJOdFZHR1g3aGdqNUd2THlMQ1BsM3ZyZzRhU2d4N21VNTQyJTJGY3JSJTJCc0J5bnBNc0pzRHpoUzVqc3FuZXJub3U4OFpmTnMxMGE0YUs5cmlGM3Y0b0pmdDZFaSUyQkxvbnVxWHlsWmtuZEJmZ082Szk2OGU2UXZPQ1Q0MFJOWHpQT0JzalVuJTJCUnB0VVIlMkI4R25GWmxIbmRvV0FuMlI5ZzJ0NFZWQTdTSkttRllLWGhaWCUyRjNJZ081VUdPUkkwRTBocVUzdlo1QVlWNEFFV3Vja1lnMTZScklsZWZZWDlySWt5Nmtrd3ElMkZoTHFFUDdMNW1LYWtjSUlEbnRDWkxHYnFoZ083bDJhZGZ1aE5veUJFdzByY2kzMktWWmlrdVFNVkpjaUlLazNpWjBwOEx5Z3BUdVZzd2lxa2JkNm9ENnppS2l0dElsZE5XMzhYME1KVG9vUTgzWjVsWGJNRUc3RUJPb1FsYkFqdm5KWGljelpuOTZockY1YkN0VzI1TmpSS3ltaExBdGo2VFE3WTFtY1JpVzZmYUx5OWxseGVrU0lZTTZPZWM3aTBKUXpuOGUxZUVDdTVqUmxpUTlaaHROekdoaGs4S1hKTXdwYUhJdWdCZHQxVFF2eEw4U242OTN0WEpSb0RNUm93JTJCVE1RV1RHVGtCSDVwSUJEY0EzQlB2OUc3MFVZTjladmFBRUNOTm14ZDBNWWY4OWx2dmhjY2UlMkJ5eG0lMkJuJTJGOTZ2djZsZEFva2xUMGJCbEEwR1RjJTJGOGowJTJCSXdYQmNFMHMlMkZiRFh0ViUyRlZRRWpmZlg3WkI5UHpoVmw4bEZyYTZueUJIYWZhZVlYZU9NcHE0MGFudnMweE5XME1XYndZRklsTXQlMkJpbWpmR2VvNUl6ZVJIQktOVVJtNXZoUFp5NUtUJTJCRjFsNUs0NTN4WEkxZW43T2NpSjZlNzFrQnVlamgweU42ZEx5UFdTWnRsaWl2cHBOdiUyRjlhZnB3SG9JblEzc3ZwZ2c2RUFXV0tsc1U4OWJSM0JrSE40UlRNcHFvd3lubWVIUGZtMDBtJTJGblRrajI0SXFpekFWd1cxOWh6TlhPM0YlMkZmRGtPY0hUYkhvN1ZHV0RrRUtxWXQ1MHJTak5Mak1KaGlTZDZRZmtwZktaTTRDVU9VOTFJQyUyQlZ4cHdCcE14aHFnTjVxYXhHUFVpcGoxUUhVa3h5NXI0ejh1Y0N6cHRkayUyQnJpVzJVclV2M3dGMU1sTm1mJTJCYnVoRGNVRVFTdWJxMUNsQURHajVvdE4yRTZZdExmQjU3d0xEM1paeEtKYzJOZ2V0dVRMRjE2b2NuViUyQktQa1o1TmI2SWRTWFo4SThISHIxa3clMkZVTWJVTTczbXdhJTJCSDhxV2piJTJGSldlME95bkJsRVhSdmFoQUVrV3pwU05EJTJGWkFMZ1RpcFBXYWZuaktVTGhVMTB2WFNuc3o3QW9HMWFxYkElMkZHJTJCa1VLSEhFQ1BENld6a1gwZVZqWEZHczFaVlpGTW4lMkZVME52RXpjcXdncGUxSkFsejR3dEZYeHY4VHN1NkhXcVNEVUJ0cTFlcSUyQmZFVkNja3clMkJlZ2clMkZ2ektjZ2VFbWZJczdpZjNlVURyOFNwYk1TR0lNVnBDRldoRGJpQldsVU11UWxhblIlMkZyRFhMWk5ocDVRbGpvZGFOaFVndWElMkJNT0doZTFLa2xSZmxQZnolMkJNTnFNUnRTSGd4bkdzMnJ1dzFxdVgwZHVQR2kzVktPbTdYVnVFeGglMkJRT1F6STloV1FGT3o5USUyRjBGJTJGSHYlMkI5d0k0MSUyRmdTQyUyRkg4QiUzQyUyRmRpYWdyYW0lM0UlM0NkaWFncmFtJTIwaWQlM0QlMjJzdG1kaEhnbGVfc0w0SGFqSkJqSCUyMiUyMG5hbWUlM0QlMjIlRDAlQTElRDElODIlRDElODAlRDAlQjAlRDAlQkQlRDAlQjglRDElODYlRDAlQjAlMjAlRTIlODAlOTQlMjAyJTIyJTNFblpLeERvSXdFSWFmcG52dEVhS3JGWFZ4WW5CdWFJVW1oU09sQnZUcEJRdGl3MEEwYWRMayUyQjclMkZjWFM4bHdNdnVaRVZkWEZBcVF4aVZIWUVEWVd3VHM2aSUyRkJ2THdaQnRSRDNLcjVTak5JTlZQTmNKSnUydXBta0IwaU1icE9vUVpWcFhLWE1DRXRkaUcyZzFOMkxVV3VWcUFOQk5tU2E5YXVzSlRBRXJuNEt4MFhveXQlMkIyam5rMUpNOXFnMmhaRFlmaUZJQ0lzSmcwNFEySk9CaFFlNFJYU3IyaVNYSFZkbTJQNjBXTiUyRjMlMkJIJTJCQnolMkJPdHF0eHZOWUgzMXNyNGJ5ZjRPWkM4QUElM0QlM0QlM0MlMkZkaWFncmFtJTNFJTNDJTJGbXhmaWxlJTNFDMuQPgAAIABJREFUeF7s3Q2wdVVdP/DtNJkZQjGVENA00KgxCSpZQYyViNU0FS9B+IaABohAOAhDIFjgC6nkDKKAGhKgoqQy40yWhKkhmOQL0ZCZkAUIWqGgTKXjPP/57Zl1/uvuZ597zr3PXueedfbnzjg+3HvOXnt91tpnn+9ea6/9mMYPAQIECBAgQIAAAQIECBCYIfAYQgQIECBAgAABAgQIECBAYJZAhMdts17k7wQIECBAgAABAgQIECAwboE2PG7bJj9uths85jGPCcDNvt37CBAgMFUgPl8W8eMzbBHKytgqAefprZKvs9yx9Zex1bfOXrk8ex39RXjcwfZw0O0goLcTICA86gMECgo4TxfEXcFNj62/jK2+K9hlF1ol4XEAbgfdAIg2QYBAr4CRRx2DwI4LOE/vuOGYtjC2/jK2+o6pL5eoq/A4gKqDbgBEmyBAQHjUBwgUEnCeLgS7opsdW38ZW31XtNsurFrC4wDUDroBEG2CAAHhUR8gUEjAeboQ7Iputq+/vPGNb2zOPvvsNTU+7LDDmquvvrrZZZdd1vz+ZS97WfPggw9O/vbBD36wOfLII3u1PvCBDzR33333dtuOF5988snN5ZdfXly5W9/u/r7hDW9ozjrrrDX7sd5r7r333ra+BxxwwJr9D8N77rmnufjii5vjjjuuufHGG7erW5i+9rWvbf9+++23r/n7Pvvs01x77bXNAw880HrFvw888MD2Nbfddlvzohe9qIl9vemmm5orrrhiu20/85nPbMJ7r732Km66ygUIjwO0rpPSAIg2QYCA8KgPECgk4DxdCHZFNzstPN56661rwmI3JKYQEwEmfiLgpHCTqOI98ZOHwghV3W0vkjavb4TCPJg9/PDDbZA76KCDJgEy9veGG26YBLH0mt12262tVwqPDz300JqAl8JjXvcIfaeffnpz6aWXTqzS+88555zmiCOO6KXIzeIF3X2M382znUU6r0pZwuMALemkNACiTRAgIDzqAwQKCThPF4Jd0c3OGx77wkmEmvQTo2zdkcNlDo99QTEF4gsuuKC56qqr2qqdcMIJzYUXXrgmGIdF+v2ee+7Z/jvC5Le//e1J4B4yPOb7GvvUF7677ZPvYzfUr2hXLlIt4XEA1r4Pmb6rUdOugGx0GL97JabvYJxnOkF3OsC06RddoqhbdzrAoqcCpA+NfMpD37SKAZq32Ca6V/fyguaZMlJsx2x4qQQWuWBOHNt777335OpymgZ00kknrfldfpW4eyx2PwvSNmJaVv6TT8fq+zIVv4upRzEt6ZprrpnsV98+xXa7+74KnxFL1REr35m+83Q6J693LpzWf7v9vDvykrj63p+m3qUvr33n1Hh/Oqf1/b27jcqbZ+l2f97w2P3siX5w6qmnNqecckoTASp9VubTJJc5PPaNAnYbJ76fxOdyd7puHuaOOeaYNjzGVNcIzzGdNEYQhwyPKdTGtuMnn8Ka9tnIY5lDS3gcwLX7IRMHX9+UhVnhcbPD+N2Dcd7pBHkInXa1qY9n2gdf3xW2AXh7N/HKV76ynU9f65WjdIKJyu23335r7iWYZ8pIKVfbXT6BRYbH7mdJ9MXXv/71zVOe8pTmsssua+/ryb84PPLII+1xeNRRR036cLf/zjMlqfuZ0r34lgfD9GV81113XXPvSv6avvttfIlYvr69yD1aLzyudy6c58t01CMdF/HvmH6XwkLf+7vHSN85NbdZxrCxyLbbirI2Gx6jvd/2trdNPi+j7Q499NA1Uy+ntWf3fsqod9yfN23a5pAuqb6x/2mEcdp9gdPCYx6kU3iM0cm4PzHucYy6XH/99e09j/N+3501yJG+u0bZffee+twfspf8/231hsdpH5bdK7vdm4fzkZ++G4uj2HS1eSM3Hqfd7buyN+2K3SJHwrofMtOmLCwiPE4bku9OJ4gvfOuNYK73AdL3wZd/mNx8881rbgxPH375FdjUD1I5+++/f3PJJZc03aupeT9Jf4ureX/2Z3/WfO1rX5uMgOZ9rzviEOXHT/dm9egj8aH+wz/8w5MvvqmPn3jiiZOrhxFQ82MitpVODlHX+FCMD634kh1XG7uv7wu46QQTV8yijjEVJD6o55ky4kbvMh+Gy7rVRYbH7nEfx0Nc3IjjO01RSp9vcUW57ypyOOa/n+d8kn+m9N370w2P8eVmp512aqdEpS8h+Wum3T80bX+Xte3t13AC84bHeftvd89SSIjR8u7offd+rvQlO/4/+u9mwuM8X/KH0xvfluYNj91zdt932+6iN8t4MSAPj339Ne8BGw2P8R0ofT7HdjYSHte75zEdqx/96Efb3Xvuc5+73aI+wmOZY3fT4bE7upUaKF2BnnXz77QvCPnqVN0qT7uyF6/byg6Sf8isN2VhEeFx3ukE3fC4oyOP6cPw2GOPXXPjc2rnuBIbH0gRlg455JBJMIu2i99FiIuTaN4vUjBLK2PlZcR70lS6rms+ahHbyG/87vrkX4Tzq2bd8JhPoUvh8XWve11z7rnntoFx3333XRM289f3hce83PzK5LxXuct8HNjqMgosMjzmn195n45po3GMxrEbixKk4zj9u3tlPI6zdKX5vvvum7kYQjq240t3vghDao++8HjRRRc1559//iTU5hd++hZOWMa2tU+LE5g3PHbPhfN8Jsc5KH3hjv6ejzxNe39+LoovyClI9oksY9hYXMttTUnzhsf8+0dckO5+t+q7oL+M7ZnqO+27YN7Ho0XmvecxXXRMx0HMYokLf/OOPK4XHrsX9ftC71Zmg63puYspddPhcVbnf/vb377uylF94XFWI0+7stcXHhd5U2z+IbPelIWhwmN3GD/qn65szXtFKD7gutuZd0novtHeafdL9u1P+nCKL6C77777mi+W67VbGjWIgNqdVtG9bzTNr+9+EG4mPMaUiw996EPtERlBMYXHuMoVN2jHh2D+pbv7+m54zF8bf4t9iqvVsR1XkxfzwVdTKYsMj/kFlIMPPnjNCHv00bhYkk7QO++88yRIdsNj3o/jy3Qcj917HvPZAvlnSt+skb7wGKP1MQUqLZIQXzIifMaFn26ozbc/773dNfUR+zpbYCP3PObnwnnu2c0/w7uf7/OGx+46AvksnL5z7iJnV83WXb1XzBseuxer00WzNEOoL4zN+v7cfezHInTz+k67dSaf6THP7VHdgJlGZbvfNee5taFr0B2wir9vJlcswnYVy9h0eEwLekw7EW9m5DH/4tJ9nsx6V/b6wuMiGys/6NabsjBUeFxvuulGwmPazjxXVnPPeabY5CfCvI+kftOdtpqmbebhMUY+us8BivdFeMyv7Ma+pZN3fLntXvnLv3h2fbr/3Z22Gl964ybs9P8pPMZ/P/WpT53MsU9fGPpe3w2PfV9G0heBvlGaRfZlZS2fwKLDYzqWYqQxAl98FufTrON4iPsf42fayGM3POZXhPNRyfQFK467z372s+09MTGi352BMi085gE2TRdM4TFfVj616nqfj8vX8vZoSIF5Rh77zoXznB/7wl26ODLt/fl3pI2MPG5kltCQfmPb1rTwuN5zHqd9N+oGrWnhse+ex0Vd7OrWt7toX9/gQvc1+QXBvoGA9RaVmvaojr7BkjgHpduR8vsc+7ZvtdUyR+6mw2PsTvfesryTT7vnMd3/Ni1c5l8S8iqvd2VvWcJjXzjsC0NpVCzVr++DZCNXYvL7eDZ7z2P3w2297rZeeOx+MZz2ZS21c4xu5B8aeb1vueWWNaPXqZ756Ef68rnZkcd0wSIPu/EBmKatxtXfuLcyriamFdTiPRFeU1BMX6Tj732vn+cZT7Om3OUXT9zzWObDcFm3uujwGH0tAlwsr3744Ye3izXEZ318wY37H+P36eLeZu95zK/Wx1X2/DNl2pX6dB9Zd3Q+febssccek+eQTTu/CI/L2svL79c84TGNXuRTp2eFx2mBM82OmXZBMO/z81yQjX1LU/3SBcg4Vy1iMZXyrbN8JfT1l+Xby+H2aGz1HU5unFvaofDYJcs/ADcz8rjeFbX1ruwtS3jsu6LerVP3S9O0k8Bmw2Pfya97NaYv5G7kaua84TGNCsQ+vfa1r23OO++8ySp0eXjM71/M+00+9Tmt6njAAQdMFhhIXya7gbk7jWS9ex77+nA+9e3OO+9sRx7z+79SeIzQGPsYP2m0o+/1eXhcb/Q5Tb/r3qc57Wpd6Y+stK/dK399q79197F7YSnf17jIFP0hRq26255n+fn1Llqlcuadtj7tdbOmD3evuOYmuVt+Qa074pxfpc3/1p2OtujwmEbRIyTmq0bGCsePPvpoO/Kf+nTf1KHulKd5Psu6nyndz8VpI4/5yGVcAEqmab/S50V+joiQ2bcqX+njyfa3VmDe8LjRex5nTZXr3poRCt1jZKPhMZ3nt/Kh8lvbmuVLH1uYGlt9y/eg1S6hNzyuN9wcU4G6i4kkovyq7pD3PM66shdfIGbdL1myGdNBt5EpC/lIV9+X8Xm+cKU69V39nzWdoG+11fyEFtuetlzzeie6/It9BIEzzzyzPVGm+5PStIz0pfquu+5qy4kbqOOZjfkX5/xLePz++OOPb2JVrfjiFz/5lNZZq62mq7OzRh6mjQDm97Hk4TFCbczrj3rFaGSaKte97yU/Rrr3RMTful+W55kyUrJPT7sgM+1iR3KN9+WBI9Vt2pSUWSup9dUxX2yo76JH6jcPPfRQ73Of8oAZx0H3damO3UdB5O/Ln92VXzRKF0xSP0jHSj5y3V2Nt7vYUvfL6KLD47Qvpn0Xx+K13TDf95zHvoUM8tkOMdIZP/kiCmn2Snw+5itY9gX7vhAb2+tedKztWbClj/ExbX/e8NgNd/Hffffsxvkt+mv+uZ97pouYcatD/Du/53fe5zymqYJ959xpfX5MbVqyrmMLU2Orb8m+M4Zt94bHvpGO7pWy7hec7ns2M/LYHZXLw1H3ClvfPOa+QLSIRnTQbV551gjP5rfsnTsqMM8oabqxP47duEeuu0z9ZsPjvCOH3aATFyPii166aJFWeutapIDYfV36nMsvesyaJpw7RXDKFwmYFbj67svrHhNbER53tO94P4FlE3CeXrYWWe79GVt/GVt9l7v3Lf/e9YbHvqvJfdPJuvc15jfUTrvnMY04xcjkejceJ7pZU1nTwgppWmMaydjIl88dbSYH3eYFhcfN25V+57Tw2G2zWYtZbWQUfTN1mnZVvm8p8e72NzttNd9OXr/4fT5iP+1+qfVmSizDyONm2sF7CCyzgPP0MrfO8u3b2PrL2Oq7fD2urj2aGh7rqsbW7q2Dbmv9lV5GYN7wOGsxq/XCY/eex42uLDdtZG/ei0c7Gh77HgWTT0ueFh7Xm4YWJvlUdiOPZfq3rY5LwHl6XO29o7UdW38ZW313tH+M/f3C4wA9wEE3AKJNLJ3AtPDYDWyzFrMqNfLYnUqfAy4iPPZN7++OyvbVfdr0/LT/XXfhcekODTtUoYDzdIWNtoW7PLb+Mrb6bmHXWomihccBmtFBNwCiTSydwDz3PMY9ht3FUOYJUDu6wNWsR8uUDo/TFqvoltu3mE7+oOW+Ru+OZgqPS3do2KEKBZynK2y0LdzlsfWXsdV3C7vWShQtPA7QjA66ARBtYukE+gJed7XVWcvUxyq3Q488TpuquqiRx/Xuw+57NE/sV6zKOG2V4m7g7HoJj0t3aNihCgWcpytstC3c5bH1l7HVdwu71koULTwO0IzpoEuPEEiLC8UjJWIBn/TlMRU17yIx0x7A3d3l/Blo+d+mfbGfZyGRzbDk+zFtn/Ltpi/asTpmPAsrf6jytMeErDdSk56xmD9XMS3cNJYl+vMgElaxjHz0wTPOOKOZtvLotLbOH5WSvybdjzfvYlZ9o5PTth3lxPa7q5bm5fdNk+3eK9k38tjXJ+e957Hr2rd0f3LJ65b2Ky3o1b3HM/XL7jMg3fO4mU8g7yEwXcCXY71jIwJj6y9jq+9G+oLXbi8gPA7QK/rCYzyyYNpow6qGx+4X/L333rs566yzpgrn4TE9hzFePK9P2nDazre+9a3m137t1yZlpmctfvGLX2yOPvrodfdlgG6wFJuYFh5f9apXbff8xaXYYTsxU8DI40wiLyAwU8CX45lEXpAJjK2/jK2+OvuOCQiPO+bXvjsddDGdLn5iFO0LX/hCO02tb6pa3z1haSQjPWA7RijiuZXxkx6Bko9O5A/i3pGRx+4DvvMRj3yEJ9+HGBXcf//9m0suuaTJH+GS9iP2OT2GJUZWTjzxxOa4445rbrzxxrY+aTQm/h2/z0ceX/Oa1zSnnXZaE/WPOj75yU9u9ttvv0nwyx8Q3w2PsU/xIObLLrusiecPhleMvMVP2kZ3xKtbr5122mmyn7lF/uiZvM7dUaZvf/vbkxG+ae0V/eTaa69toqzrrruurWeMDoZZ7H8+ShqvTf2g6xb3zl1xxRWTPhKrfCbn2Mc3velNbT98xSte0bz5zW9u/z89l3GAbm8TCxJYVHhcUHUUQ4AAgSoEtm3bVsV+DrGTwuMQiuPZhvA4QFuvd9DNCo9RfISDo446qg1I+UqM8SzMe+65px3B7N5/lr8ugkffKN8801bz7dx8881tgIlg88ADD7T/H1Nv4+fUU09tTjnllPbfEfbigfCxX3kZ+X50p7DG+7r1OOSQQ7YLj1dddVVz3333TaawRojs2498amoKwM997nObCFtpemYKmmEYPinEpgezd5/PF/U66aSTtmuHcMkfv5C3af7vKO/KK69s93fPPfds2zU9d7TrHH+LcJoM7r///va/o76prHBIi9Hsu+++rVUExhQSwzTaJ2+3KLfUtOQBDhWb2ITAIk7qiyhjE1X3FgKDCejjg1GOYkNj6y9jq+8oOnHBSgqPA+DOCo9pdCgvKo0c5kFpr732WrO4yC233DIJj91FQvLRy9e97nVTw2MaAczLTiNnKZBEaIppo/k9bPl9m/loVXcxj3ya5DXXXDPZj2mjoflU1XnCY+x3ClBhFSOJaWQx1SnfZkwXTkExBd58v3KH7hTPfNXQNDoY4aw7WpfuRT333HPXBLV8exG+u8/7S/dx5gEx2jy3ytv1+uuvb2699dY2IMY+pH269NJLW5MUgvNyhccBDugl28QiTuqLKGPJWO3OyAT08ZE1+A5Wd2z9ZWz13cHuMfq3C48DdIFZ4TGNuqWi8oDQDRJ5EOiGxzR9MW0nBbxp4WjWyGN3dCy2mweZfKpmvrBHvpjNPOGxuxhIlJOPus1aMCf2KUY6Y0pn/HTvo8zDY/w9AuSxxx47Gb3Mw3U+DTRemwzj33m98vAYf8un3cZ/x3TXKCMPnN3wOK298lHdCIXrhcdu+I+LDhEmzzvvvHYEOEK/8DjAQbzEm1jESX0RZSwxsV0bgYA+PoJGHrCKY+svY6vvgF1llJsSHgdo9h0JjxsZeUzTN7sjYZu953G9kcc8oHVXRc0DUz4S2Tfy2J0qutGRxxiZiyD3oQ99qG2pmDqbT1mN3+XbjHAV+xeh8NFHH50sWhSjkcccc8yaqaTdkcdp4TGmD+cjgPOOPE5rr+6o5nrhMU1bzrtpd6Eh4XGAg3iJN7GIk/oiylhiYrs2AgF9fASNPGAVx9ZfxlbfAbvKKDclPA7Q7DsSHqP4zdzzmD8kfb1pq3noibK6jyaYds9jPuqZVi3N73lM9wbOuuexGx7TyN9GRh7T/Z577LHHZArntDCVpsLG4jxpwZsUzrrhMb9Hcb2Rxzw8pkcuHHDAAdutprvePY95e+X3ca438pjf8xiBObVVmrZq5HGAg7eCTSzipL6IMiqgtosrLKCPr3DjFqja2PrL2OpboMuMapPC4wDNvSPhMd3n2F1tNY24RbDsW221b5XT7nTOWdNWI5BMW221+/vutNW0Kum0VV/z5yvGvuYrxwZ5voBNd9pqCtTx/xEAu/cFdpusOxKXB7Xue/OpuK9+9aubO+64Y81qr7FgT7JPI4f5M/qivscff3zz0Y9+tA2y+d/OPPPMdntpwZ58um7eXvOOPOZ9IOqcrHfeeefJQkPdaatpNLnvmZcDdHWb2AKBRZzUF1HGFtApksBEQB/XGTYiMLb+Mrb6bqQveO32AsLjAL1iTAfdRp/BOADvdqOlQ2yzxDa6ixqVKMM2xyewiM+XRZQxvpZT42US0MeXqTWWf1/G1l/GVt/l74HLvYfC4wDtM6aDbtHhMY3epWmyAzTXYJvojs7mo4uDFWJDoxdYxOdLKqP7HNSEnz/ztG8BrHhdmiGRN1hcUEmP/8nvVc6fIZteH8dPPM4nVlROz4TNt5Wec+pZpaM/JDYFsIjjaFM75k1LKTC2/jK2+i5lp6top4THARrLQTcAok0QINArsIjPl254TM8njR1KYTGmrsc06e7jeuI13efQxu/SvdLx7/3222/NKsl9z7/tVr6vHF2EwGYFFnEcbXbfvG/5BMbWX8ZW3+XrcXXtkfA4QHs56AZAtAkCBJYyPMZO5fdP33XXXWseUZN2urvqc4S/GEWMe5rj/el+4ni98KizL1rAeXrR4nWXN7b+Mrb61t07t37vhccB2sBBNwCiTRAgsLThMZ+u3l0FOHa6b+QxAmP8xEJe6VmtMXIpPOroWyHgPL0V6vWWObb+Mrb61tszl2PPhccB2sFBNwCiTRAgUE14TKtD5zucVmSO3+WP94l7HePex5tuuqm9pzGFxyuuuGJNffP7KuMPpq06IIYUcJ4eUnP1tzW2/jK2+q5+Dy5bQ+FxAF8H3QCINkGAwNKGx3wl4e7IY98qw32L6nQf6xOVTWGyr+LCowNiSAHn6SE1V39bY+svY6vv6vfgsjUUHgfwddANgGgTBAgsbXicdc9jTEt98MEH22efxmqoffc05vdEuudRZ1+0gPP0osXrLm9s/WVs9a27d2793guPA7SBg24ARJsgQGApw+NGV1uNEcYjjzyyyVdsjYrlATT+ZuRRh1+kgPP0IrXrL2ts/WVs9a2/h25tDYTHAfwddAMg2gQBAksTHm+//fY1+9J9zuPpp5/eXHrppU3+7MYIhzfccEPz0pe+tHnnO9/ZxHv22muvyXbyEBr3PwqPOvwiBZynF6ldf1lj6y9jq2/9PXRrayA8DuDvoBsA0SYIENjy8KgJCKyqgPP0qrZsmXqNrb+Mrb5les14tio8DtDWDroBEG2CAAHhUR8gUEjAeboQ7Ipudmz9ZWz1Td32c5/7XPOCF7yg+eIXv9i85S1vaU499dR1e/QXvvCF5o/+6I+aj3/84833vve95ulPf3rz8pe/vDn66KObMBzLj/A4QEuP9aAbgM4mCBCYIbCIz5dFlKGhCWylgD6+lfr1lT22/jK2+qYeGbdbxGOmfvAHf7B56lOf2lx77bXNrrvu2tthY2XxM844o/nud7/bPOc5z2ke+9jHtiHy61//evPqV7+6OfPMM0cTIIXHAT7TxnrQDUBnEwQICI/6AIHiAs7TxYlXqoCx9Zex1Tc660MPPdTEM4sjDMb9+X/913/dXHPNNc2zn/3s7fpyBMQXv/jFzVe+8pXmHe94R3PwwQe3r/nyl7/cHH/88c03v/nN9r0xEjmGH+FxgFYe40E3AJtNECAwh8AiPl8WUcYcVfUSAsUE9PFitCu54bH1l7HVNzrthz/84eaEE05ojjvuuOZZz3pW++8IiDEa2Z2Cml7b9/frrruufTzVBRdc0Jx11lkreTx0KyU8DtDMYzzoBmCzCQIE5hBYxOfLIsqYo6peQqCYgD5ejHYlNzy2/jK2+m7btq0Nen/+53/eXHXVVU08Yup5z3te861vfat5z3ve0zzpSU9a069jWuqFF17YvO9972vvb8x/7rjjjva+yf32269dafzxj3/8Sh4TeaWExwGaeGwH3QBkNkGAwJwCi/h8WUQZc1bXywgUEdDHi7Cu7EbH1l/GVt8vfelLzfOf//zmCU94QvPe97632W233ZqLLrqoHT3sWzgnRhbjEVNxT2T+iKo4AO6999722cZxr2SMQv7oj/7oyh4XqWLC4wBNPLaDbgAymyBAYE6BRXy+LKKMOavrZQSKCOjjRVhXdqNj6y9jq+8VV1zRTjWN0cTzzz+/7cef+MQnmmOPPbb52Z/92TUL58RoZNzXGCut9oXHuN8xprM+8MAD2z3feFUPEOFxgJYd20E3AJlNECAwp0D33os53+ZlBAgQILADAjG1cSw/Y/oe++ijj7b3N376059uF7n55V/+5baZ0+8/9rGPtVNZf+u3fqv9/cMPP9zeF3nnnXf2hsf09/vvv194HMsBM0Q9x3TQDeFlGwQIzC+wiM+XRZQxf429ksDwAvr48KarvMWx9Zcx1TeNMD7jGc9orr766maXXXaZdOXLLrusOe2005qXvvSlzVvf+tb2cRxGHrc/0o08DvDpN6aDbgAumyBAYAMCi/h8WUQZG6iylxIYXEAfH5x0pTc4tv4ypvqmxW/W68BPecpTmne/+91NBMz4cc/jWi3hcYCPv3TQpZtmb7/99jVbPfnkk5vLL798clNt9++HHXbYdlc/4mGkcQNu+omHmPYtARyvu/jii9uh8viJ93S3v88++6wZap+27TT0fuONN26n0reP3RfFds8+++zeYf156xNLJMdP2ue4KnTOOee0vwvD9HPbbbe1NzbH1IJ4Ps+0n3lfF/sXc9m7V6EG6B42QWCHBBZxUl9EGTuE4M0EdlBAH99BwJG9fWz9ZSz1jamlsVBOPK/x13/915vHPe5x2/Xsz3/+883f/d3frbkfMr5n/+Ef/mH7XfuII45Y8x6rrY7sw2Go6nbDY4Sd1LlSIIsHkcZSwBHu+v5+0EEHTcJhBKgbbrhhMnc6bSNWg8oDVOx/X3jMtz8r4KVt5+XHeyJ0nX766c2ll1663cpSfW6xnVNPPbX9UyxXnAfdbqj8ReEsAAAgAElEQVScVma8Nw+PsbJV1Deu+AiPQ/VW26lNYBEn9UWUUZu7/V0tAX18tdqzdG3G1l/GUt/0TMZjjjlmMi2125fSMx333Xff9rEde+yxR/ORj3ykXUyn7zmPcd9k/H7aIE/pvroV2zfyOID6euExNh/hZ++9926is3bDYwpM99xzz2R0Mm7kjRWg8uWAY1Sz7/cbCY/rBcXuKF43PM4awYu/v+1tb2siJEcATCOCGykzheH4/913371d2Srs5gmPUX6Ufffdd7chvTsSm3533333bfe6GLk08jjAgWATRQQWcVJfRBlFcGyUwJwC+vicUF7WCoytv4yhvt/5zneal7/85c3111/fft9+4Qtf2NvbH3roofZ74ic/+cnJ67761a+2r48VVWOl1rTIzpe//OV2JdZYcTVC5NOf/vRRHEHC4wDNvF54TFNZYzRwnpHHaSFmWgjbSHjcyGjiRl6bAnD8f4w4Rtg79NBD29HXjW6nrzlmhcd4T4Tyo446alL+gw8+2E5BveuuuybTW9Pr0shsbDe97uabbzZtdYBjwSaGF1jESX0RZQwvY4sE5hfQx+e38krhcRX7wOc+97nmBS94QfPjP/7jkxHFafWMQZC4Det5z3te8853vrN5/OMf37zvfe9rzjjjjPYtz3nOc9rFdD7+8Y83X//615u4j/LMM89sLzqM4Ud4HKCVZ93zmIayZ90TGbuy3ghYGsHsTgmddc9jul8xD1Lr3ScY+7GR0JemrJ5yyintaGnUIU05nTViOQ9/1Duu9HR/8tHEfOQ03/d4T/pb3AuarKL++b7F39zzOE9reM2iBRbxpXcRZSzaTXkEcgF9XH/YiMDY+ssY6psC4Stf+crJLVLT+kQKmvH3fOGcv/3bv20uueSS5pZbbmm+973vtSONMZp59NFHjyY4honwuJFPkymvnTVtNb0tH4WcNio3RHicds/jRgLhRl+bpoymuubBbiP3TvYRzxp57IbCfIpvNzzmixDF39LCPDEVQXjcXn/aBY98AaV8ynC+hdQHXve617W/7t6v29eu8x6O3TKn3WswTxnTLnDEiSZNJ5/WL9NFjVTXdFEm37+0YFa6KJMfK/l+pxNbvC5/zyJO6rMugG2kvZNBXp+oU3ehge4CXV3DtMhWbhHbSX0ybTOO/ziuZ70un7Le10/T30866aQ192znF+36LmTl5U47XtLnzJ577tm7qFnfIgzzHgteN5/AIo6j+fbEq2oQGFt/GVt9a+iDy7yPwuMArbPZ8BhFdxfHmXZvY/77mFcd91DGCORGpq1Om/oa204BL//yO2/o6/uCnr5wnXjiie3DVbsL8vSVOa0pZoXH+NI378jjtIDonsd+/e4Fj3hVtx/NutCQ99HUv/q2O++h2B3pnlb+tPCRl5NC3q677rrm4b4p+HQDSXpvProev8v7aF63Qw45ZNL/41iIRaXSCH13hDzuGY5nTMVPfsws4qS+3mfYRtt72udafr93MkpTzeM93YW14r9f//rXNz/8wz+8ZlXl7u8jPM7zuvicWO8zbVpf6IbH/EJIdzGzWf267++p3LiQ0F3Fb95jwutmCyziOJq9F15Ri8DY+svY6ltLP1zW/RQeB2iZHQmPfYFu1mqr+YhI/PvWW29t7+975JFHehfkyas4beXT7kquswJB2ua0L0v5fsX9hPkjPNZbPbavOWaFx3jPZu55zJ1NW50/PKZwkEblZvWVvj6SB8oYmUwXQzZzOPYdQ+niRGyvb5XiPKzEfQqxP2mRp3Qv7P7779987Wtf227EtG8f8/p0L2bkx0L+MOJZqw4n30Wc1Gd9huWfOZtp7+SdLt68/e1v7x3VzctJF3R22mmn5vDDD58Eq2ifJz7xic2nPvWpts3SsTvrdfOEx7gIFdvJ+8x64THqlXukkcVpsz/m+bzM+8hmjgfv6RdYxHHEfnUExtZfxlbf1empW1MT4XEA91lfvGYFrb7nI673XMR8ulf+DMdpU6ai/HxaVHfbfaMr86622jeqlL5QxfS8dDV9njKnNcWs8JjuX+yuthq/705xy6eu5XZGHucPj5sZieq2Yd/9u5s9FPu+kKftRwCLn+6U2byszU5bzbfRvViSj3BPO0amBYmu7yJO6kOOPE6rb/LKH1/UHWnL35tCYR7i00WBONajTfPwOOt184bHiy66qDn//PMnK17PCo+zHseU95NpbT7EveGbPX7G8r5FHEdjsRxDPcfWX8ZW3zH04ZJ1FB4H0HXQDYBoE0spMM8iT9PuecwvSuThPEbI+x47s1mAbjBNj42JKaAxAlQ6PHYvtHRHGqeFqb6LIukiS37/3yI+X2bd87jefZup3dJrZl2IWS889i1iFU7p8T8RKGMxrnjeVr4QVoT1Wa+bds9j2u+87FjKPc3oiD6URsb72qwvPMZ+5j/pntFps0OEx80e/fO/bxHH0fx745XLLjC2/jK2+i57/1v2/RMeB2ghB90AiDaxlALzLPI0axpjVCy/ZzdWKUtfzHd0il7+uJXYVvd+yJIL5kS9+u5X64anvvDY3e9u4+fv+cmf/Mlm27ZtRfvHtJHHvrad1d47MvLYFx4vvfTS5txzz23vFU33ex988MHbhcdZr5t35DFGM3feeef2vtMY4Yywul54nPU4pnlGHmeZFW38kWzceXokDT1QNcfWX8ZW34G6yWg3IzwO0PQOugEQbWIpBfqm2XXvyZ0VJqJiaXQmphbecccd7ZfyHVkcZNp9s/OMgnahNztttW+6eQqU+QJO+Uhk/D1CybT7MNO+5aax2NRWhcfYn42293pTM9OiQBu55zHu547Xx/2n0XcuvPDClqk78jjrdRsJjzHlPQW6PfbYY7Lg17Qp9GkhHvc8LuXHWLtTztPL2zbLuGdj6y9jq+8y9rma9kl4HKC1HHQDINrEUgoMsdpqqlhawbT7SIbNVHyeEcXY7jyv20x4XC8wT1ttNVZHnrY/3dHKPHDGaqNbGR43c49r3yrS+aJW8662mu4djUW34v19z6zNF7ta73UbDY+p/8TjWNIjVbrtZ7XVzRy9W/Me5+mtca+11LH1l7HVt9Z+uSz7LTwO0BIOugEQbWIpBaaNIuWjbrHj3ed8xu/yBYniv9Oo4KGHHrpmAZuNLp4z7T7Mvmc9dh+h0Xev5bzhsXtPXKwgnP/koTgfAU331M3a7/y5iFt9z2N3tdDNtHf3OY/d9pnnOY8pPKZ7BdOjPfqmt+YrTve9bto9j6mf5qOZ3UfKpO1t9jmPse1YtCzaNUJw955Iz3ks//HnPF3eeJVKGFt/GVt9V6mvbkVdhMcB1B10AyDaBAECvQKL+HxZRBmal8BWCujjW6lfX9lj6y9jq299PXK59lh4HKA9pi02kTadP7tsgOImm8ivvnefLTetnDQ9LhaXiPt0YsQoroZvdPXLtCpk9zEf3UdjpCv4Q9Z72baVt2+MTMTI2t133937HLtl23f7s/wCizipL6KM5Ze2h6ssoI+vcusOX7ex9Zex1Xf4HjOuLQqPA7T3VoXHfNfnXeq9bxn9fCXMAw88cC6R2M7rX//6Ju7HSg9XjzdO+/1cG630RdPCY1Qn7nPzQ2BHBBZxUl9EGTti4L0EdlRAH99RwXG9f2z9ZWz1HVdvHr62wuMAphsNj2nULopOC0DEYwby36d7ntKS8bFK5XXXXdeOaKV7h1JgfM1rXtOcdtpp7X006X3x77i3Jv2ke2q6I4/xmvjbjTfe2N6j9pKXvKT5zGc+08T9Q7FP+TPz8scqpO3stNNOzeGHHz5ZOTNG3p74xCc2n/rUpyahMr/3Kd1ftO+++05WnYwFKeKn+1zAvv2P16XtxbYi7MY+pIfA5/ckdZ3C8JJLLmnrGX+7+OKLW7Npz7DL7zuL+qYy/uZv/mZyP98DDzwwcY7t7Lfffs3Tnva0Jn4fPzuyougAXdMmVkBgESf1RZSxAk2hChUL6OMVN94W7PrY+svY6rsFXWqlihQeB2jOjYTH/LlwhxxyyCRAxXPM8qmjEZDi58QTT2xfc//997chL18xMP6elqvPp612VxXMV26M1QhjEYpp01Zjqfm+/eiOoKXwGIEsltCPYBUjmGkqbPx3jEhGOIuQFvseU1jTAibxu6hX/ERQjf2KBUhi3+InLX0f4TDf/7vuumvyt7Qs/gEHHNCW331dTMmNkLj77ru303NPOumkdiQw9iGe3dYtq7vMfv4svrSKY9Qjb7dU7j333LNmEZgBupVNEGgFFnFSX0QZmpPAVgro41upX1/ZY+svY6tvfT1yufZYeBygPbrhsbuSXhSRRremPUD8LW95S/OqV72qfYZZPnW0u0x+bCutTpk/KHu9ex7zMmeFxyg73bcXIenUU09tH87dnc6athmvjdCWgmKEsmOPPXYSarv3PKYpnik8xjPsItCtN3U23//u8+Gmba/r1A2jKezl5cZoYR50uys65n/Lp6qWuqd1gK5pEysgsIiT+iLKWIGmUIWKBfTxihtvC3Z9bP1lbPXdgi61UkUKjwM050ZGHvPRsTQtNB89TI88SNNZY/dihC5/qPo84bG7pHza3jzhMcJaCoHpod75lNXYp3z6a4yaRsC85pprmr333rvJQ22adhvTYtNPBOkUHlO9uuFx2v7HIwTiJ00h7YbHvJwU2rthNg973fCYT5WN96dpthEs02MDwkJ4HODAsYm5BBZxUl9EGXNV1osIFBLQxwvBruhmx9ZfxlbfFe22C6uW8DgA9UbC47SRxzStM+3OtBG1fCRy2shjd6roRkce0/TTCE5x/2Lfoi/d0cCYunrHHXe0I6fxkwLx9ddf39x6662Teyi79eoLj90RwI2MPOYhO1l2FxNaLzzmATHvGn0PcU+jl0YeBziIbGKqwCJO6osoQxMT2EoBfXwr9esre2z9ZWz1ra9HLtceC48DtMdGwuO0ex77Rsdi19I9j/HvuDcwv+cvD2n5tNU8PKaRv/T+eUYe47X5fYF9K7B2A2mM2KXRzdjHvvCYHvQd9yiuN/KYh8fu/s97z2P+UPE8ZMc02mnhsXvPY7zuhhtuaO/XDFMjjwMcLDaxYYH4fPFDgAABAosV2LZt22IL3MLShMctxK+waOFxgEbbSHiM4qattpqvStqdtrrbbrs1aVXStHJqPqIW201TLiNknnfeeZMVVM8888y2zHRfYnfBnLQAzJ133tkGpAiLfY/0yKnyv+dBLUYp+/YrrQR7/PHHNx/96EfXLNgTK5Lm00fTSqxpBdh8/1P4i8V1YjXUZz3rWc2jjz7au9pqus903pHHqHcK97GqbZqy2ueRB9Bpz7wcoGvZBAEL5ugDBAYQ8OV4AMQRbWJs/WVs9R1RVy5SVeFxANaSB12apto3HXOAXZ+6iXRf5TI/p7BvMaGSJrZNYCsESn6+pPosooytsFMmAX1cH9iMwNg+E8dW3830Ce/5/wLC4wC9oeRBt+jwmMoLlvSsxwGIBttEPmobG82f0ThYITZEYIkESn6++GK9RA1tV4oKLOI4KloBG1+owNj6y9jqu9DOtIKFCY8DNKqDbgBEmyBAoFdgEZ8viyhD8xLYSgF9fCv16yt7bP1lbPWtr0cu1x4LjwO0h4NuAESbIEBAeNQHCBQScJ4uBLuimx1bfxlbfVe02y6sWsLjANQOugEQbYIAAeFRHyBQSMB5uhDsim52bP1lbPVd0W67sGoJjwNQO+gGQLQJAgSER32AQCEB5+lCsCu62bH1l7HVd0W77cKqJTwOQO2gGwDRJggQ2PLwGI/MiUf+xKN18p+0MFX6+znnnNPEI3bST/7omvxxN+nv8VideMRQPGon/n766ae3j+vpPkO2b5Xn/BFGsb30qKJ8/2IhrXh8T3rUUN8+pNe/4Q1vaLrPfo2/pcXC4hFB8ZPvc/x37MeVV145KSN+lz9iqO95uLr08gg4Ty9PW9SwJ2PrL2Orbw19cJn3UXgcoHUcdAMg2gQBAksTHvNwmK/4HIEqwuWs8NgNhxEK4+fyyy/fUHiMwHbDDTdMgmdfeI39O/XUU9vt77fffk338UKxjVtvvXXN6tHdZ7+m7R511FGT93cDaQqx+QrPwmM9B63zdD1ttQx7Orb+Mrb6LkMfq3kfhMcBWs9BNwCiTRAgsJThMXYqjQgec8wxmwqPEcRiVDAe/3PXXXfNNfI4bZQz39Yuu+zShtG3ve1tTTwLNwLeVVdd1Y5wpp95wmM+cpo3Qv77tJ37779/Ep6Fx3oOWufpetpqGfZ0bP1lbPVdhj5W8z4IjwO0noNuAESbIEBgKcNjHuJ2ZORx7733bkf15p22GiHx4osvnow6TuseEeriJ7YdIffQQw/dbkrteiOPO++8c3Pccce14TOfihvbzPfh+uuvb+655552+ykIP/LII80JJ5zQXHjhhdtNwdWdl0vAeXq52mPZ92Zs/WVs9V32/rfs+yc8DtBCDroBEG2CAIGlCY/dex7jPsEIZ5u95/Gwww6bTBvdSHhMIS1GGPt+0pTVU045pQ1vEfZuuummdnrsvCOP64XHfHprCo8RaCNsHnTQQU2MxAqPdRy4ztN1tNOy7OXY+svY6rss/azW/RAeB2g5B90AiDZBgMDShMfuPY1px+YNj917HvMRvPvuu2+uaavzjDzOWpwn9nvWtNWNhsd03+YFF1zQXHTRRc35559v5LGCY9d5uoJGWqJdHFt/GVt9l6irVbkrwuMAzeagGwDRJggQWPrwmC+ek0/xnLUgTn5vYFRyntVWpwXVdI/jZZdd1t57GD/5SGN3xdZZ4THuj5z3nseYtprKinIefPDB5tvf/rbwWMGx6zxdQSMt0S6Orb+Mrb5L1NWq3BXhcYBmc9ANgGgTBAgsfXiMHUyhKRa/SQvWxP2CMbU1AmXftNTNjDymUcO+1VZjVdT1Fu/J73GcJzzOu9pqHh7Tex566KE1j+/QjZdTwHl6OdtlWfdqbP1lbPVd1n5Xy34JjwO0lINuAESbIECgivCYAuQVV1wx2d/82Yt9U0n32WefdZ/BmP5+zTXXNGlhnbTx7nMe0/2X06a1pvJTmJ0nPEZZ8zznMQ+P8Z7u4zx04eUVcJ5e3rZZxj0bW38ZW32Xsc/VtE/C4wCt5aAbANEmCBDY8vCoCQisqoDz9Kq2bJl6ja2/jK2+ZXrNeLYqPA7Q1g66ARBtggAB4VEfIFBIwHm6EOyKbnZs/WVs9V3RbruwagmPA1A76AZAtAkCBIRHfYBAIQHn6UKwK7rZsfWXsdV3RbvtwqolPA5A7aAbANEmCBAQHvUBAoUEnKcLwa7oZsfWX8ZW3xXttgurlvA4ALWDbgBEmyBAQHjUBwgUEnCeLgS7opsdW38ZW31XtNsurFrC4wDUDroBEG2CAAHhUR8gUEjAeboQ7Ipudmz9ZWz1XdFuu7BqCY8DUDvoBkC0CQIEhEd9gEAhAefpQrArutmx9Zex1XdFu+3CqiU8DkDtoBsA0SYIEBAe9QEChQScpwvBruhmx9ZfxlbfFe22C6vWJDwurEQFESBAgAABAgQIECBAgECVAo9pmmbbtm3bqtx5O02AAAECBAgQIECAAAEC5QVMWy1vrAQCBAgQIECAAAECBAhULyA8Vt+EKkCAAAECBAgQIECAAIHyAsJjeWMlECBAgAABAgQIECBAoHoB4bH6JlQBAgQIECBAgAABAgQIlBcQHssbK4EAAQIECBAgQIAAAQLVCwiP1TehChAgQIAAAQIECBAgQKC8gPBY3lgJBAgQIECAAAECBAgQqF5AeKy+CVWAAAECBAgQIECAAAEC5QWEx/LGSiBAgAABAgQIECBAgED1AsJj9U2oAgQIECBAgAABAgQIECgvIDyWN1YCAQIECBAgQIAAAQIEqhcQHqtvQhUgQIAAAQIECBAgQIBAeQHhsbyxEggQIECAAAECBAgQIFC9gPBYfROqAAECBAgQIECAAAECBMoLCI/ljZVAgAABAgQIECBAgACB6gWEx+qbUAUIECBAgAABAgQIECBQXkB4LG+sBAIECBAgQIAAAQIECFQvIDxW34QqQIAAAQIECBAgQIAAgfICwmN5YyUQIECAAAECBAgQIECgegHhsfomVAECBAgQIECAAAECBAiUFxAeyxsrgQABAgQIECBAgAABAtULCI/VN6EKECBAgAABAgQIECBAoLyA8FjeWAkECBAgQIAAAQIECBCoXkB4rL4JVYAAAQIECBAgQIAAAQLlBYTH8sZKIECAAAECBAgQIECAQPUCwmP1TagCBAgQIECAAAECBAgQKC8gPJY3VgIBAgQIECBAgAABAgSqFxAeq29CFSBAgAABAgQIECBAgEB5AeGxvLESCBAgQIAAAQIECBAgUL2A8Fh9E6oAAQIECBAgQIAAAQIEygsIj+WNlUCAAAECBAgQIECAAIHqBYTH6ptQBQgQIECAAAECBAgQIFBeQHgsb6wEAgQIECBAgAABAgQIVC8gPFbfhCpAgAABAgQIECBAgACB8gLCY3ljJRAgQIAAAQIECBAgQKB6AeGx+iZUAQIECBAgQIAAAQIECJQXEB7LGyuBAAECBAgQIECAAAEC1QsIj9U3oQoQIECAAAECBAgQIECgvIDwWN5YCQQIECBAgAABAgQIEKheQHisvglVgAABAgQIECBAgAABAuUFhMfyxkogQIAAAQIECBAgQIBA9QLCY/VNqAIECBAgQIAAAQIECBAoLyA8ljdWAgECBAgQIECAAAECBKoXEB6rb0IVIECAAAECBAgQIECAQHkB4bG8sRIIECBAgAABAgQIECBQvYDwWH0TqgABAgQIECBAgAABAgTKCwiP5Y2VQIAAAQIECBAgQIAAgeoFhMfqm1AFCBAgQIAAAQIECBAgUF5AeCxvrAQCBAgQIECAAAECBAhULyA8Vt+EKkCAAAECBAgQIECAAIHyAsJjeWMlECBAgAABAgQIECBAoHoB4bH6JlQBAgQIECBAgAABAgQIlBcQHssbK4EAAQIECBAgQIAAAQLVCwiP1TehChAgQIAAAQIECBAgQKC8gPBY3lgJBAgQIECAAAECBAgQqF5AeKy+CVWAAAECBAgQIECAAAEC5QWEx/LGSiBAgAABAgQIECBAgED1AsJj9U2oAgQIECBAgAABAgQIECgvIDyWN1YCAQIECBAgQIAAAQIEqhcQHqtvQhUgQIAAAQIECBAgQIBAeQHhsbyxEggQIECAAAECBAgQIFC9gPBYfROqAAECBAgQIECAAAECBMoLCI/ljZVAgAABAgQIECBAgACB6gWEx+qbUAUIECBAgAABAgQIECBQXkB4LG+sBAIECBAgQIAAAQIECFQvIDxW34QqQIAAAQIECBAgQIAAgfICwmN5YyUQIECAAAECBAgQIECgegHhsfomVAECBAgQIECAAAECBAiUFxAeyxsrgQABAgQIECBAgAABAtULCI/VN6EKECBAgAABAgQIECBAoLyA8FjeWAkECBAgQIAAAQIECBCoXkB4rL4JVYAAAQIECBAgQIAAAQLlBYTH8sZKIECAAAECBAgQIECAQPUCwmP1TagCBAgQIECAAAECBAgQKC8gPJY3VgIBAgQIECBAgAABAgSqFxAeq29CFSBAgAABAgQIECBAgEB5AeGxvLESCBAgQIAAAQIECBAgUL2A8Fh9E6oAAQIECBAgQIAAAQIEygsIj+WNlUCAAAECBAgQIECAAIHqBYTH6ptQBQgQIECAAAECBAgQIFBeQHgsb6wEAgQIECBAgAABAgQIVC8gPFbfhCpAgAABAgQIECBAgACB8gLCY3ljJRAgQIAAAQIECBAgQKB6AeGx+iZUAQIECBAgQIAAAQIECJQXEB7LGyuBAAECBAgQIECAAAEC1QsIj9U3oQoQIECAAAECBAgQIECgvIDwWN5YCQQIECBAgAABAgQIEKheQHisvglVgAABAgQIECBAgAABAuUFhMfyxkogQIAAAQIECBAgQIBA9QLCY/VNqAIECBAgQIAAAQIECBAoLyA8ljdWAgECBAgQIECAAAECBKoXEB6rb0IVIECAAAECBAgQIECAQHkB4bG8sRIIECBAgAABAgQIECBQvYDwWH0TqgABAgQIECBAgAABAgTKCwiP5Y2VQIAAAQIECBAgQIAAgeoFhMfqm1AFCBAgQIAAAQIECBAgUF5AeCxvrAQCBAgQIECAAAECBAhULyA8Vt+EKkCAAAECBAgQIECAAIHyAsJjeWMlECBAgAABAgQIECBAoHoB4bH6JlQBAgQIECBAgAABAgQIlBcQHssbK4EAAQIECBAgQIAAAQLVCwiP1TehChAgQIAAAQIECBAgQKC8gPBY3lgJBAgQIECAAAECBAgQqF5AeKy+CVWAAAECBAgQIECAAAEC5QWEx/LGSiBAgAABAgQIECBAgED1AsJj9U2oAgQIECBAgAABAgQIECgvIDyWN1YCAQIECBAgQIAAAQIEqhcQHqtvQhUgQIAAAQIECBAgQIBAeQHhsbyxEggQIECAAAECBAgQIFC9gPBYfROqAAECBAgQIECAAAECBMoLCI/ljZVAgAABAgQIECBAgACB6gWEx+qbUAUIECBAgAABAgQIECBQXkB4LG+sBAIECBAgQIAAAQIECFQvIDxW34QqQIAAAQIECBAgQIAAgfICwmN5YyUQIECAAAECBAgQIECgegHhsfomVAECBAgQIECAAAECBAiUFxAeyxsrgQABAgQIECBAgAABAtULCI/VN6EKECBAgAABAgQIECBAoLyA8FjeWAkECBAgQIAAAQIECBCoXkB4rL4JVYAAAQIECBAgQIAAAQLlBYTH8sZKIECAAAECBAgQIECAQPUCwmP1TagCBAgQIECAAAECBAgQKC8gPJY3VgIBAgQIECBAgAABAgSqFxAeq29CFSBAgAABAgQIECBAgEB5AeGxvLESCBAgQIugJbYAACAASURBVIAAAQIECBAgUL2A8Fh9E6oAAQIECBAgQIAAAQIEygsIj+WNlUCAAAECBAgQIECAAIHqBYTH6ptQBQgQIECAAAECBAgQIFBeQHgsb6wEAgQIECBAgAABAgQIVC8gPFbfhCpAgAABAgQIECBAgACB8gLCY3ljJRAgQIAAAQIECBAgQKB6AeGx+iZUAQIECBAgQIAAAQIECJQXEB7LGyuBAAECBAgQIECAAAEC1QsIj9U3oQoQIECAAAECBAgQIECgvIDwWN5YCQQIECBAgAABAgQIEKheQHisvglVgAABAgQIECBAgAABAuUFhMfyxkogQIAAAQIECBAgQIBA9QLCY/VNqAIECBAgQIAAAQIECBAoLyA8ljdWAgECBAgQIECAAAECBKoXEB6rb0IVIECAAAECBAgQIECAQHkB4bG8sRIIECBAgAABAgQIECBQvYDwWH0TqgABAgQIECBAgAABAgTKCwiP5Y2VQIAAAQIECBAgQIAAgeoFhMfqm1AFCBAgQIAAAQIECBAgUF5AeCxvrAQCBAgQIECAAAECBAhULyA8Vt+EKkCAAAECBAgQIECAAIHyAsJjeWMlECBAgAABAgQIECBAoHoB4bH6JlQBAgQIECBAgAABAgQIlBcQHssbK4EAAQIECBAgQIAAAQLVCwiP1TehChAgQIAAAQIECBAgQKC8gPBY3lgJBAgQIECAAAECBAgQqF5AeKy+CVWAAAECBAgQIECAAAEC5QWEx/LGSiBAgAABAgQIECBAgED1AsJj9U2oAgQIECBAgAABAgQIECgvIDyWN1YCAQIECBAgQIAAAQIEqhcQHqtvQhUgQIAAAQIECBAgQIBAeQHhsbyxEggQIECAAAECBAgQIFC9gPBYfROqAAECBAgQIECAAAECBMoLCI/ljZVAgAABAgQIECBAgACB6gWEx+qbUAUIECBAgAABAgQIECBQXkB4LG+sBAIECBAgQIAAAQIECFQvIDxW34QqQIAAAQIECBAgQIAAgfICwmN5YyUQIECAAAECBAgQIECgegHhsfomVAECBAgQIECAAAECBAiUFxAeyxsrgQABAgQIECBAgAABAtULCI/VN6EKECBAgAABAgQIECBAoLyA8FjeWAkECBAgQIAAAQIECBCoXkB4rL4JVYAAAQIECBAgQIAAAQLlBYTH8sZKIECAAAECBAgQIECAQPUCwmP1TagCBAgQIECAAAECBAgQKC8gPJY3VgIBAgQIECBAgAABAgSqFxAeq29CFSBAgAABAgQIECBAgEB5AeGxvLESCBAgQIAAAQIECBAgUL2A8Fh9E6oAAQIECBAgQIAAAQIEygsIj+WNlUCAAAECBAgQIECAAIHqBYTH6ptQBQgQIECAAAECBAgQIFBeQHgsb6wEAgQIECBAgAABAgQIVC8gPFbfhCpAgAABAgQIECBAgACB8gLCY3ljJRAgQIAAAQIECBAgQKB6AeGx+iZUAQIECBAgQIAAAQIECJQXEB7LGyuBAAECBAgQIECAAAEC1QsIj9U3oQoQIECAAAECBAgQIECgvIDwWN5YCQQIECBAgAABAgQIEKheQHisvglVgAABAgQIECBAgAABAuUFhMfyxkogQIAAAQIECBAgQIBA9QLCY/VNqAIECBAgQIAAAQIECBAoLyA8ljdWAgECBAgQIECAAAECBKoXEB6rb0IVIECAAAECBAgQIECAQHkB4bG8sRIIECBAgAABAgQIECBQvYDwWH0TqgABAgQIECBAgAABAgTKCwiP5Y2VQIAAAQIECBAgQIAAgeoFhMfqm1AFCBAgQIAAAQIECBAgUF5AeCxvrAQCBAgQIECAAAECBAhULyA8Vt+EKkCAAAECBAgQIECAAIHyAsJjeWMlECBAgAABAgQIECBAoHoB4bH6JlQBAgQIECBAgAABAgQIlBcQHssbK4EAAQIECBAgQIAAAQLVCwiP1TehChAgQIAAAQIECBAgQKC8gPBY3lgJBAgQIECAAAECBAgQqF5AeKy+CVWAAAECBAgQIECAAAEC5QWEx/LGSiBAgAABAgQIECBAgED1AsJj9U2oAgQIECBAgAABAgQIECgvIDyWN1YCAQIECBAgQIAAAQIEqhcQHqtvQhUgQIAAAQIECBAgQIBAeQHhsbyxEggQIECAAAECBAgQIFC9gPBYfROqAAECBAgQIECAAAECBMoLCI/ljZVAgAABAgQIECBAgACB6gWEx+qbUAUIECBAgAABAgQIECBQXkB4LG+sBAIECBAgQIAAAQIECFQvIDxW34QqQIAAAQIECBAgQIAAgfICwmN5YyUQIECAAAECBAgQIECgegHhsfomVAECBAgQIECAAAECBAiUFxAeyxsrgQABAgQIECBAgAABAtULCI/VN6EKECBAgAABAgQIECBAoLyA8FjeWAkECBAgQIAAAQIECBCoXkB4rL4JVYAAAQIECBAgQIAAAQLlBYTH8sZKIECAAAECBAgQIECAQPUCwmP1TagCBAgQIECAAAECBAgQKC8gPJY3VgIBAgQIECBAgAABAgSqFxAeq29CFSBAgAABAgQIECBAgEB5AeGxvLESCBAgQIAAAQIECBAgUL2A8Fh9E6oAAQIECBAgQIAAAQIEygsIj+WNlUCAAAECBAgQIECAAIHqBYTH6ptQBQgQIECAAAECBAgQIFBeQHgsb6wEAgQIECBAgAABAgQIVC8gPFbfhCpAgAABAgQIECBAgACB8gLCY3ljJRAgQIAAAQIECBAgQKB6AeGx+iZUAQIECBAgQIAAAQIECJQXEB7LGyuBAAECBAgQIECAAAEC1QsIj9U3oQoQIECAAAECBAgQIECgvIDwWN5YCQQIECBAgAABAgQIEKheQHisvglVgAABAgQIECBAgAABAuUFhMfyxkogQIAAAQIECBAgQIBA9QLCY/VNqAIECBAgQIAAAQIECBAoLyA8ljdWAgECBAgQIECAAAECBKoXEB6rb0IVIECAAAECBAgQIECAQHkB4bG8sRIIECBAgAABAgQIECBQvYDwWH0TqgABAgQIECBAgAABAgTKCwiP5Y2VQIAAAQIECBAgQIAAgeoFhMfqm1AFCBAgQIAAAQIECBAgUF5AeCxvrAQCBAgQIECAAAECBAhULyA8Vt+EKkCAAAECBAgQIECAAIHyAsJjeWMlECBAgAABAgQIECBAoHoB4bH6JlQBAgQIECBAgAABAgQIlBcQHssbK4EAAQIECBAgQIAAAQLVCwiP1TehChAgQIAAAQIECBAgQKC8gPBY3lgJBAgQIECAAAECBAgQqF5AeKy+CVWAAAECBAgQIECAAAEC5QWEx/LGSiBAgAABAgQIECBAgED1AsJj9U2oAgQIECBAgAABAgQIECgvIDyWN1YCAQIECBAgQIAAAQIEqhcQHqtvQhUgQIAAAQIECBAgQIBAeQHhsbyxEggQIECAAAECBAgQIFC9gPBYfROqAAECBAgQIECAAAECBMoLCI/ljZVAgAABAgQIECBAgACB6gWEx+qbUAUIECBAgAABAgQIECBQXkB4LG+sBAIECBAgQIAAAQIECFQvIDxW34QqQIAAAQIECBAgQIAAgfICwmN5YyUQIECAAAECBAgQIECgegHhsfomVAECBAgQIECAAAECBAiUFxAeyxsrgQABAgQIECBAgAABAtULCI/VN6EKECBAgAABAgQIECBAoLyA8FjeWAkECBAgQIAAAQIECBCoXkB4rL4JVYAAAQIECBAgQIAAAQLlBYTH8sZKIECAAAECBAgQIECAQPUCwmP1TagCBAgQIECAAAECBAgQKC8gPJY3VgIBAgQIECBAgAABAgSqFxAeq29CFSBAgAABAgQIECBAgEB5AeGxvLESCBAgQIAAAQIECBAgUL2A8Fh9E6oAAQIECBAgQIAAAQIEygsIj+WNlUCAAAECBAgQIECAAIHqBYTH6ptQBQgQIECAAAECBAgQIFBeQHgsb6wEAgQIECBAgAABAgQIVC8gPFbfhCpAgAABAgQIECBAgACB8gLCY3ljJRAgQIAAAQIECBAgQKB6AeGx+iZUAQIECBAgQIAAAQIECJQXEB7LGyuBAAECBAgQIECAAAEC1QsIj9U3oQoQIECAAAECBAgQIECgvIDwWN5YCQQIECBAgAABAgQIEKheQHisvglVgAABAgQIECBAgAABAuUFhMfyxkogQIAAAQIECBAgQIBA9QLCY/VNqAIECBAgQIAAAQIECBAoLyA8ljdWAgECBAgQIECAAAECBKoXEB6rb0IVIECAAAECBAgQIECAQHkB4bG8sRIIECBAgAABAgQIECBQvYDwWH0TqgABAgQIECBAgAABAgTKCwiP5Y2VQIAAAQIECBAgQIAAgeoFhMfqm1AFCBAgQIAAAQIECBAgUF5AeCxvrAQCBAgQIECAAAECBAhULyA8Vt+EKkCAAAECBAgQIECAAIHyAsJjeWMlECBAgAABAgQIECBAoHoB4bH6JlQBAgQIECBAgAABAgQIlBcQHssbK4EAAQIECBAgQIAAAQLVCwiP1TehChAgQIAAAQIECBAgQKC8gPBY3lgJBAgQIECAAAECBAgQqF5AeKy+CVWAAAECBAgQIECAAAEC5QWEx/LGSiBAgAABAgQIECBAgED1AsJj9U2oAgQIECBAgAABAgQIECgvIDyWN1YCAQIECBAgQIAAAQIEqhcQHqtvQhUgQIAAAQIECBAgQIBAeQHhsbyxEggQIECAAAECBAgQIFC9gPBYfROqAAECBAgQIECAAAECBMoLCI/ljZVAgAABAgQIECBAgACB6gWEx+qbUAUIECBAgAABAgQIECBQXkB4LG+sBAIECBAgQIAAAQIECFQvIDxW34QqQIAAAQIECBAgQIAAgfICwmN5YyUQIECAAAECBAgQIECgegHhsfomVAECBAgQIECAAAECBAiUFxAeyxsrgQABAgQIECBAgAABAtULCI/VN6EKECBAgAABAgQIECBAoLyA8FjeWAkECBAgQIAAAQIECBCoXkB4rL4JVYAAAQIECBAgQIAAAQLlBYTH8sZKIECAAAECBAgQIECAQPUCwmP1TagCBAgQIECAAAECBAgQKC8gPJY3VgIBAgQIECBAgAABAgSqFxAeq29CFSBAgAABAgQIECBAgEB5AeGxvLESCBAgQIAAAQIECBAgUL2A8Fh9E6oAAQIECBAgQIAAAQIEygsIj+WNlUCAAAECBAgQIECAAIHqBYTH6ptQBQgQIECAAAECBAgQIFBeQHgsb6wEAgQIECBAgAABAgQIVC8gPFbfhCpAgAABAgQIECBAgACB8gLCY3ljJRAgQIAAAQIECBAgQKB6AeGx+iZUAQIECBAgQIAAAQIECJQXEB7LGyuBAAECBAgQIECAAAEC1QsIj9U3oQoQIECAAAECBAgQIECgvIDwWN5YCQQIECBAgAABAgQIEKheQHisvglVgAABAgQIECBAgAABAuUFhMfyxkogQIAAAQIECBAgQIBA9QLCY/VNqAIECBAgQIAAAQIECBAoLyA8ljdWAgECBAgQIECAAAECBKoXEB6rb0IVIECAAAECBAgQIECAQHkB4bG8sRIIECBAgAABAgQIECBQvYDwWH0TqgABAgQIECBAgAABAgTKCwiP5Y2VQIAAAQIECBAgQIAAgeoFhMfqm1AFCBAgQIAAAQIECBAgUF5AeCxvrAQCBAgQIECAAAECBAhULyA8Vt+EKkCAAAECBAgQIECAAIHyAsJjeWMlECBAgAABAgQIECBAoHoB4bH6JlQBAgQIECBAgAABAgQIlBcQHssbK4EAAQIECBAgQIAAAQLVCwiP1TehChAgQIAAAQIECBAgQKC8gPBY3lgJBAgQIECAAAECBAgQqF5AeKy+CVWAAAECBAgQIECAAAEC5QWEx/LGSiBAgAABAgQIECBAgED1AsJj9U2oAgQIECBAgAABAgQIECgvIDyWN1YCAQIECBAgQIAAAQIEqhcQHqtvQhUgQIAAAQIECBAgQIBAeQHhsbyxEggQIECAAAECBAgQIFC9gPBYfROqAAECBAgQIECAAAECBMoLCI/ljZVAgAABAgQIECBAgACB6gWEx+qbUAUIECBAgAABAgQIECBQXkB4LG+sBAIECBAgQIAAAQIECFQvIDxW34QqQIAAAQIECBAgQIAAgfICwmN5YyUQIECAAAECBAgQIECgegHhsfomVAECBAgQIECAAAECBAiUFxAeyxsrgQABAgQIECBAgAABAtULCI/VN6EKECBAgAABAgQIECBAoLyA8FjeWAkECBAgQIAAAQIECBCoXkB4rL4JVYAAAQIECBAgQIAAAQLlBYTH8sZKIECAAAECBAgQIECAQPUCwmP1TagCBAgQIECAAAECBAgQKC8gPJY3VgIBAgQIECBAgAABAgSqFxAeq29CFSBAgAABAgQIECBAgEB5AeGxvLESCBAgQIAAAQIECBAgUL2A8Fh9E6oAAQIECBAgQIAAAQIEygsIj+WNlUCAAAECBAgQIECAAIHqBYTH6ptQBQgQIECAAAECBAgQIFBeQHgsb6wEAgQIECBAgAABAgQIVC8gPFbfhCpAgAABAgQIECBAgACB8gLCY3ljJRAgQIAAAQIECBAgQKB6AeGx+iZUAQIECBAgQIAAAQIECJQXEB7LGyuBAAECBAgQIECAAAEC1QsIj9U3oQoQIECAAAECBAgQIECgvIDwWN5YCQQIECBAgAABAgQIEKheQHisvglVgAABAgQIECBAgAABAuUFhMfyxkogQIAAAQIECBAgQIBA9QLCY/VNqAIECBAgQIAAAQIECBAoLyA8ljdWAgECBAgQIECAAAECBKoXEB6rb0IVIECAAAECBAgQIECAQHkB4bG8sRIIECBAgAABAgQIECBQvYDwWH0TqgABAgQIECBAgAABAgTKCwiP5Y2VQIAAAQIECBAgQIAAgeoFhMfqm1AFCBAgQIAAAQIECBAgUF5AeCxvrAQCBAgQIECAAAECBAhULyA8Vt+EKkCAAAECBAgQIECAAIHyAsJjeWMlECBAgAABAgQIECBAoHoB4bH6JlQBAgQIECBAgAABAgQIlBcQHssbK4EAAQIECBAgQIAAAQLVCwiP1TehChAgQIAAAQIECBAgQKC8gPBY3lgJBAgQIECAAAECBAgQqF5AeKy+CVWAAAECBAgQIECAAAEC5QWEx/LGSiBAgAABAgQIECBAgED1AsJj9U2oAgQIECBAgAABAgQIECgvIDyWN1YCAQIECBAgQIAAAQIEqhcQHqtvQhUgQIAAAQIECBAgQIBAeQHhsbyxEggQIECAAAECBAgQIFC9gPBYfROqAAECBAgQIECAAAECBMoLCI/ljZVAgAABAgQIECBAgACB6gWEx+qbUAUIECBAgAABAgQIECBQXkB4LG+sBAIECBAgQIAAAQIECFQvIDxW34QqQIAAAQIECBAgQIAAgfICwmN5YyUQIECAAAECBAgQIECgegHhsfomVAECBAgQIECAAAECBAiUFxAeyxsrgQABAgQIECBAgAABAtULCI/VN6EKECBAgAABAgQIECBAoLyA8FjeWAkECBAgQIAAAQIECBCoXkB4rL4JVYAAAQIECBAgQIAAAQLlBYTH8sZKIECAAAECBAgQIECAQPUCwmP1TagCBAgQIECAAAECBAgQKC8gPJY3VgIBAgQIECBAgAABAgSqFxAeq29CFSBAgAABAgQIECBAgEB5AeGxvLESCBAgQIAAAQIECBAgUL2A8Fh9E6oAAQIECBAgQIAAAQIEygsIj+WNlUCAAAECBAgQIECAAIHqBYTH6ptQBQgQIECAAAECBAgQIFBeQHgsb6wEAgQIECBAgAABAgQIVC8gPFbfhCpAgAABAgQIECBAgACB8gLCY3ljJRAgQIAAAQIECBAgQKB6AeGx+iZUAQIECBAgQIAAAQIECJQXEB7LGyuBAAECBAgQIECAAAEC1QsIj9U3oQoQIECAAAECBAgQIECgvIDwWN5YCQQIECBAgAABAgQIEKheQHisvglVgAABAgQIECBAgAABAuUFhMfyxkogQIAAAQIECBAgQIBA9QLCY/VNqAIECBAgQIAAAQIECBAoLyA8ljdWAgECBAgQIECAAAECBKoXEB6rb0IVIECAAAECBAgQIECAQHkB4bG8sRIIECBAgAABAgQIECBQvYDwWH0TqgABAgQIECBAgAABAgTKCwiP5Y2VQIAAAQIECBAgQIAAgeoFhMfqm1AFCBAgQIAAAQIECBAgUF5AeCxvrAQCBAgQIECAAAECBAhULyA8Vt+EKkCAAAECBAgQIECAAIHyAsJjeWMlECBAgAABAgQIECBAoHoB4bH6JlQBAgQIECBAgAABAgQIlBcQHssbK4EAAQIECBAgQIAAAQLVCwiP1TehChAgQIAAAQIECBAgQKC8gPBY3lgJBAgQIECAAAECBAgQqF5AeKy+CVWAAAECBAgQIECAAAEC5QWEx/LGSiBAgAABAgQIECBAgED1AsJj9U2oAgQIECBAgAABAgQIECgvIDyWN1YCAQIECBAgQIAAAQIEqhcQHqtvQhUgQIAAAQIECBAgQIBAeQHhsbyxEggQIECAAAECBAgQIFC9gPBYfROqAAECBAgQIECAAAECBMoLCI/ljZVAgAABAgQIECBAgACB6gWEx+qbUAUIECBAgAABAgQIECBQXkB4LG+sBAIECBAgQIAAAQIECFQvIDxW34QqQIAAAQIECBAgQIAAgfICwmN5YyUQIECAAAECBAgQIECgegHhsfomVAECBAgQIECAAAECBAiUFxAeyxsrgQABAgQIECBAgAABAtULCI/VN6EKECBAgAABAgQIECBAoLyA8FjeWAkECBAgQIAAAQIECBCoXkB4rL4JVYAAAQIECBAgQIAAAQLlBYTH8sZKIECAAAECBAgQIECAQPUCwmP1TagCBAgQIECAAAECBAgQKC8gPJY3VgIBAgQIECBAgAABAgSqFxAeq29CFSBAgAABAgQIECBAgEB5AeGxvLESCBAgQIAAAQIECBAgUL2A8Fh9E6oAAQIECBAgQIAAAQIEygsIj+WNlUCAAAECBAgQIECAAIHqBYTH6ptQBQgQIECAAAECBAgQIFBeQHgsb6wEAgQIECBAgAABAgQIVC8gPFbfhCpAgAABAgQIECBAgACB8gLCY3ljJRAgQIAAAQIECBAgQKB6AeGx+iZUAQIECBAgQIAAAQIECJQXEB7LGyuBAAECBAgQIECAAAEC1QsIj9U3oQoQIECAAAECBAgQIECgvIDwWN5YCQQIECBAgAABAgQIEKheQHisvglVgAABAgQIECBAgAABAuUFhMfyxkogQIAAAQIECBAgQIBA9QLCY/VNqAIECBAgQIAAAQIECBAoLyA8ljdWAgECBAgQIECAAAECBKoXEB6rb0IVIECAAAECBAgQIECAQHkB4bG8sRIIECBAgAABAgQIECBQvYDwWH0TqgABAgQIECBAgAABAgTKCwiP5Y2VQIAAAQIECBAgQIAAgeoFhMfqm1AFCBAgQIAAAQIECBAgUF5AeCxvrAQCBAgQIECAAAECBAhULyA8Vt+EKkCAAAECBAgQIECAAIHyAsJjeWMlECBAgAABAgQIECBAoHoB4bH6JlQBAgQIECBAgAABAgQIlBcQHssbK4EAAQIECBAgQIAAAQLVCwiP1TehChAgQIAAAQIECBAgQKC8gPBY3lgJBAgQIECAAAECBAgQqF5AeKy+CVWAAAECBAgQIECAAAEC5QWEx/LGSiBAgAABAgQIECBAgED1AsJj9U2oAgQIECBAgAABAgQIECgvIDyWN1YCAQIECBAgQIAAAQIEqhcQHqtvQhUgQIAAAQIECBAgQIBAeQHhsbyxEggQIECAAAECBAgQIFC9gPBYfROqAAECBAgQIECAAAECBMoLCI/ljZVAgAABAgQIECBAgACB6gWEx+qbUAUIECBAgAABAgQIECBQXkB4LG+sBAIECBAgQIAAAQIECFQvIDxW34QqQIAAAQIECBAgQIAAgfICwmN5YyUQIECAAAECBAgQIECgegHhsfomVAECBAgQIECAAAECBAiUFxAeyxsrgQABAgQIECBAgAABAtULCI/VN6EKECBAgAABAgQIECBAoLyA8FjeWAkECBAgQIAAAQIECBCoXkB4rL4JVYAAAQIECBAgQIAAAQLlBYTH8sZKIECAAAECBAgQIECAQPUCwmP1TagCBAgQIECAAAECBAgQKC8gPJY3VgIBAgQIECBAgAABAgSqFxAeq29CFSBAgAABAgQIECBAgEB5AeGxvLESCBAgQIAAAQIECBAgUL2A8Fh9E6oAAQIECBAgQIAAAQIEygsIj+WNlUCAAAECBAgQIECAAIHqBYTH6ptQBQgQIECAAAECBAgQIFBeQHgsb6wEAgQIECBAgAABAgQIVC8gPFbfhCpAgAABAgQIECBAgACB8gLCY3ljJRAgQIAAAQIECBAgQKB6AeGx+iZUAQIECBAgQIAAAQIECJQXEB7LGyuBAAECBAgQIECAAAEC1QsIj9U3oQoQIECAAAECBAgQIECgvIDwWN5YCQQIECBAgAABAgQIEKheQHisvglVgAABAgQIECBAgAABAuUFhMfyxkogQIAAAQIECBAgQIBA9QLCY/VNqAIECBAgQIAAAQIECBAoLyA8ljdWAgECBAgQIECAAAECBKoXEB6rb0IVIECAAAECBAgQIECAQHkB4bG8sRIIECBAgAABAgQIECBQvYDwWH0TqgABAgQIECBAgAABAgTKCwiP5Y2VQIAAAQIECBAgQIAAgeoFhMfqm1AFCBAgQIAAAQIECBAgUF5AeCxvrAQCBAgQIECAAAECBAhULyA8Vt+EKkCAAAECBAgQIECAAIHyAsJjeWMlLfsTIgAAIABJREFUECBAgAABAgQIECBAoHoB4bH6JlQBAgQIECBAgAABAgQIlBcQHssbK4EAAQIECBAgQIAAAQLVCwiP1TehChAgQIAAAQIECBAgQKC8gPBY3lgJBAgQIECAAAECBAgQqF5AeKy+CVWAAAECBAgQIECAAAEC5QWEx/LGSiBAgAABAgQIECBAgED1AsJj9U2oAgQIECBAgAABAgQIECgvMAmP5YtSAgECBAgQIECAAAECBAjULPCYpmm2bdu2reY62HcCE4G4IqI/6xAECBAgQGA5BZynl7Nd7BWBeQRMW51HyWuqEnBSqqq57CwBAgQIjEzAeXpkDa66KyUgPK5Uc6pMCDgp6QcECBAgQGB5BZynl7dt7BmBWQLC4ywhf69OwEmpuiazwwQIECAwIgHn6RE1tqqunIDwuHJNqkJOSvoAAQIECBBYXgHn6eVtG3tGYJaA8DhLyN+rE3BSqq7J7DABAgQIjEjAeXpEja2qKycgPK5ck6qQk5I+QIAAAQIEllfAeXp528aeEZglIDzOEvL36gSclKprMjtMgAABAiMScJ4eUWOr6soJCI8r16Qq5KSkDxAgQIAAgeUVcJ5e3raxZwRmCcwVHu+9997myCOPbA444IDm8ssvX7PNN77xjc2tt97aXH311c0uu+zS/u3hhx9ujjvuuObGG2+cvPbkk09e8960zdtvv33N9vbZZ5/m2muvbQ488MCp28rf8IEPfKA54ogjZtXT30ckMM9J6WUve1lzxRVX9KqkPvjAAw80F198cRN97L777mte9KIXNXfffXfve6J/x2uj38fr+vrktD4fG+z2+xE1l6oSIECAwMgE+s7T8X3yyiuvXPMdMFjSufOcc85pz63xunvuuWe776N9r7vhhhvac/hee+21nXBsJ/1955133u57a3pD/j3zgx/8YPt9uO/nsMMOa78LP/LII+1rut9v4z3d78Ija3bVXRGBDYXHOBC6Ya0bHm+77bb2y/Ohhx665sCOL+uf/exnJwdxHOQnnHBCc+GFF06CYpjGgXn22WdPPjxSEJ32hXxF2kE1BhSYJzzmxUWfiwsW+QWQ1BdTeMxPPNP65Ky+Oq3PD1h1myJAgAABAksvMC08xve/FMLSgMSOhMf3v//9zVOe8pTmsssumwxwpPN7BLxnPvOZ7ffSFB673zW730mnfV/Iwaed61M9jjrqqOass85a+jaygwSmCcwdHiPo7bbbbs2//Mu/rLmKk4fHKCRGXg466KDeAyMCZPzE6OV6X6T7tjkrPPaNgGr2cQrUHB5TAJ12DI2zRdWaAAECBFZJYFp4jJls999/f5MHrB0Jj7G9+O567LHHrhmoSN9H06DGtPDY/a66I+Ex2s931VXqxeOty4bCY1wpieAXB2KavpofCHfddVdz+umnN5deeumagzTxxqjkBRdc0Fx11VXtr/pGHuP3+eumHdDjbTI1nyVQc3icVTd/J0CAAAECtQtMC48xHTVmruUz0HY0PMZU1wcffHAyqBHbi++qz33uc5t3vetdM0ceb7rppsl3XuGx9p5n/4cQ2FB4jCmm8ROjgG94wxsmc8/TPY8333zz5B6xvvnl+RWcPffcc2p4zF+37777Tp2HnqYb9JU1BI5t1CmwzOFx2n0Q3Wk6dcrbawIECBAgMFtgvfAYgxMxMhiBL7+HcDP3PMb309e85jXttNW4DSWmwkYAjEAYITXdmrLePY/5+Xm9ex7je3EMspi2Orv9vaJugQ2Hx1jIJr/J+Prrr58smFMyPM6atlp3M9j7IQWWOTxOG20fsv62RYAAAQIElllgVnjM7w885phj2gVoNhseI4BedNFF7TbiO2wE0wiO8dMNj93vmmkdjzRgMu/I47QLxSlgLnPb2DcCswQ2FR7TfVkxfXXvvfeehEfTVmdx+/siBITHRSgrgwABAgQIbE5gVniMrabFaiJwRcjbkfAYgxsx2njuuedObq+KRSBnhcfYj3y9jnnDY/dCcXfRyM2peReB5RDYVHiMXU9XY37qp36qecITntBOLYifrVowZzk47cUyCAiPy9AK9oEAAQIECPQLzBMeU3D7h3/4h+Yb3/jG5HapaQEuvpfm627ka3LE4zPSfY7/+I//2N7DGNuZNzzGQElMSd1seEyDLlGn7sru+giB2gQ2HR6jonFgdpdV9qiO2rrA6u2v8Lh6bapGBAgQILA6AvOGx/z5yOlRcdMeeZHfJxn3NnZXNk3Pd07bmSc8dgPpZsNjPujSfZTd6rSqmoxFYIfC47QrKen3N95448Sx+2DUaQ9M7y6C07etvHHSdi1/PJYuO7ueWx0e836f9jZOVtG3p90HEa+LqTknnnjiuqP3s2vvFQQIECBAYLkF5g2PUYu0SE3+nPF5vmd2vxfmYTEWWuwLj9PO37Fia74vfbr77LNP+8zo9RaETHVx7+Ny9097t77AXOERIoGaBDYaHmuqm30lQIAAAQK1CzhP196C9n/MAsLjmFt/RevupLSiDataBAgQILASAs7TK9GMKjFSAeFxpA2/ytV2Ulrl1lU3AgQIEKhdwHm69ha0/2MWEB7H3PorWncnpRVtWNUiQIAAgZUQcJ5eiWZUiZEKCI8jbfhVrraT0iq3rroRIECAQO0CztO1t6D9H7OA8Djm1l/RujsprWjDqhYBAgQIrISA8/RKNKNKjFRAeBxpw69ytZ2UVrl11Y0AAQIEahdwnq69Be3/mAWExzG3/orW3UlpRRtWtQgQIEBgJQScp1eiGVVipALC40gbfpWr7aS0da37spe9rLniiiua/GHOW7c3q1NyPOz67LPPbk4++eTm3HPPbY488sjm9ttvb50f97jHNS95yUuaX/zFX2yuvvrqZpdddpla8S996UvN85///PY911xzTbP33nuvDpKaECBQjYDzdDVNZUcJbCcgPOoUKyfgpLR1TSo8lrFfLzz+5m/+ZhPuH/7wh5u3vvWtzdFHHz11Jy666KLmggsuaC688MLm/PPPL7OztkqAAIEZAs7TugiBegWEx3rbzp5PEXBSWlzX+L//+7/mQx/6UHPttdc2d955Z3PvvfdOCt93332bAw88sHnxi1/cHHzwwU20i5/NCeTh8VWvelVz1FFHNbfddttkhDf+/aIXvah58pOf3LbFrrvuul1B999/fzvq+Oijjzbvec97mic96Umb2xnvIkCAwA4KOE/vIKC3E9hCAeFxC/EVXUbASamMa3erd9xxR3P66ac3n/zkJ5u99tqr+fmf//kmAsqnP/3p5vDDD2+++c1vNp/73Oea733ve83v/d7vNW94wxt6Q81i9rbuUt7//ve3hq985SvbkcPjjz+++cIXvtAGxQjo3/nOd5ozzzyznbZ62WWXtYG9+xO/P+2004w61t0V7D2BlRBwnl6JZlSJkQoIjyNt+FWutpNS+db98pe/PAkwp5xySnPeeec1O++8czt9Mr/n8d/+7d/asHPdddc1L3jBC5orr7yyefzjH9+cddZZzSWXXNJcfvnl7X1804LOW97ylubUU09tt3vTTTdNwlL++jQqF+E0ths/6Xf5vZef+cxn2r9H2I3fP/OZz2zvHYyf+O8IwPlPX5lphO/QQw9t9z3/ufnmm5sTTjih+f7v//41+/mNb3yjrWuU8cUvfnG7usZ+9JWfv/BTn/pUc+yxx7YWr3jFK9oQ+Pd///dr3vf5z3++fc2P/diPtd4/8RM/MdnE17/+9TZQfu1rX2ve/e53Nz/zMz/TjlzGaOXdd989tcMcdthhk/so0+tPOumk5ud+7ufaiwG33HJLs9NOOzW/+qu/2t6T+bSnPW27bUXIjfYI/+g38foYlX7hC1/Yev3QD/3Q5D2p/3Q3sv/++ze/+7u/29Y9vf7hhx9ujjvuuObGG2+cuv/77LPPdn0mRl4jjL/rXe9qwuz7vu/72gsfEb6f+9znrhkh7+tHqbAPfvCDbf+J/pv6wrTXb9u2rfnjP/7j9n+5adpWjNrHcRNTj2P0/qd/+qebI444ojnnnHOaH/mRH1n3gI5tb+R4+p3f+Z3JPbN9PlFYbpu/JvYt6rzHHntsd39tek/UJV3UiG3NO5W97/2pvLi/d6P7msru+9yIGROxX9EH8vYr/8mphCTgPK0vEKhXQHist+3s+RQBJ6WyXSONcsVIVgTHP/3TP21+4Ad+oC2074tiCi4RNOJLdoSGj3zkI23QiRD2zne+sw2U6Se+3EeoiMVdrr/++nYq5o6Gx9hmhJ4YFX3Oc57Tbn/33XcfLDym7Ucwy7/kxhfi3//9329uuOGG5qlPfWrzS7/0S81jH/vYtqr/+7//2/zVX/1V88QnPnFmePzKV77S3ssYU1Z/+7d/u3nzm9/chuB8gZwUUCKoRrALs/QTYTL+O9rr4osvbgNSCoMRNiM85T8ReKONYrpxKiO9/hd+4RfaEeUIyVGfr371q83HPvaxNuS86U1vWnPP5fve977mjDPOaDcd7jGd9qGHHmo+8YlPtCEp/vYnf/InE5PYx7/4i79ofuM3fmMSmvLXR0BN+5/CRvSr/PWpHhFW//M//3NNkIltxehthIZYLOhXfuVX2pd//OMfb6KfvvrVr25DZJpiPVR4TMH+n/7pn7YLjxF+Y58i2McocgT7f/7nf27bJ8J47GuEyfV+NnI8xbEWATCC/He/+9324k666JLKyC8sLEN43My+rhce//Iv/7JdZOrBBx8UHsueLqZu3Xl6i+AVS2AAAeFxAESbWC4BJ6Wy7RFTU+Oeu//4j/9oV+x89rOfPSlw2ihD+hJ+4okntiMs//3f/92GyH//939vR8Ke8YxnTLaRvrjGaFYsABNha0fDY4SVCKvxJTlG7+InjWrEv3d05DHuIfyDP/iD5r/+67/WhMf0pT5C1lVXXbVm2u6s8jfTivfcc09bzxhNi32KEaIUsmLUM7debxQ1/S0Cbzc8xkhltGO0aYw2R2h973vf24auCD5p1DPdYxmh7B3veEcbRNPPv/7rv7Yjof/zP/8zuUCw3pf9CFMxch1lpQsK00a6Uhl9fSb1w//X3pnGSlF8fbg+uOBCVEBEZVURRAwiJiqKBFEhBjTu4AKJuEVE45IgKIrIoglB4QOJIBr0A2qMAmqMiKCSEJHggmIg7kgUlygBXKIS3zz1eu6/6dsz3TN9507NzK+TG7h3eql+TvVU/fqcOgfvGy8/Onfu7Hc3Tzr/Llq0yF1wwQX+7y0hHvFy3XnnnW7+/Pn+nFHPo9kLpjNmzPDefPv+4iUAnkraisc+6qGN9w36XdbnCZGKeEREIh67devW7AUO980LiAMOOMA/f+ZJrJbnsZy2FupPvEDg5dGyZcs8Rnkey/mmyX+Mxun8DHUGEagWAYnHapHXdStGQINSxdD6E5uwOPTQQ72XqHv37qni0UL8ohNny/xpoal2EiauZANFtFhYaR7xOGLECC9saHc0UUyaeMsatornjYk7QgoxhBCwyTYeQoTDrFmzfAhidEu7frlWxLuLh848SoRCMllGrMHWvGrlikfsHk+4gzd6/PjxXtiZ3VasWOEmTpzoBg4c6IVaNGFSsRDHpDDDpP1LFY8mZvHi8tJj8ODBeyE2TvRRe2nREuIRLxdie+TIkT70OirIbR3q9ddf33RNa5R54PGWJ7U33j+yPk9RAYhXEe83LxUIDWZDXBHOjGDDO45wr7Z45CVIqW0tJB55PhDqhEHPnTtX4rHcL5qcx2mczglQh4tAFQlIPFYRvi5dGQIalCrD1c5Kohy8QGzRSadN1pLqPFrCF8QgYXht27b1oYt4yahPiFcOz4oJAiaw5jkrNAmMik3EUtKaR8QtdQ/xLnBtC3nk2DTxllU8IjAQAfPmzfPCKbrma/ny5Z4V9xkXUGnXL9eKFiZMyCYhwYSSbtiwoaCHN2n9ZjHP49ChQ733OJ49F4GDQEW04jGLbth127Ztng1rIAkpJfS1Q4cOzdbHJYlH1rwhgBE09CW8ZaWKR0JrscOAAQPc4sWLHSI4uiEqERR42ggzRrDkFY/WRkQYHm+80yYe8eoRSk2fIbw3qcQK/XXSpEk+NJz1nsW2rM9TVDySfZdQZrycsGGz8yD8sUW0P1fL84gtSm1r0veGeXrJNDxs2DA3atQoicdyv2hyHqdxOidAHS4CVSQg8VhF+Lp0ZQhoUKoMVzureSZYc2drGO2zpLDVaEKPqLBICqe0iSuJUKICpFAileidJolH+5yJO94/krXYlibesohHW8vGej6SBrG+MTrZjoYlsp5u9OjRXsxmEa95rIg44p4JKUassU4SgWDrLTl3uZ5HvGRxLyrnS0ogwxo/9sWuu3fv9reEDVjDt2vXLv97PLlKfM0jx7EmkVBn+gQCjK1U8WjtI9kPawvj4veff/7x60jxHlubTDwWs0WxhDnm5cLDRQIjPHomHjkn/Rw2hMm2b9++2WW+//57L2SzhFZmfZ6iApD1pghYogcIjaV/4MGE1YIFC9zMmTMTxSNivtAWT2yT9Oxa0iRqlJL8ifWyxRLmIB5LbSvtiz7DvKSiL/JCB8GOJzqe8CjPM6djSyOgcbo0XtpbBEIiIPEYkjXUlhYhoEGpRTAWPYmFRsYTeiSJRxKaIKrYmLSRcMU2C9uz0FUmrnjL4mF6SYlU7Bys5SNEMkk84iHbsmWLv+7kyZP3SoaSVzwiCAiHJRMqHljEAWIgnm3y9ddf9wlREFJJW5Zsq6VaNJots2vXrolhj+WKR8RGPMEK7YuLRxPWcCZzKJlMEW5wYq1dEqtiLwk6derkS8MQBkyCpnLFYxrLqPgx8cgaXxIsRbckYRf1VPJs4M3Dy8Xzgqc1STwWyxZr18siHtk3y/MUFY94/AnhRJzj6ccTTBuxES9b4i9D7FgE9tlnn+322WefJiRJ4tsEHM9hlCFhzuZ9Zi0s0Qgkbor3iTxtjYtHfufeCDHnRQ71aSUe056Gyn2ucbpybHVmEag0AYnHShPW+VudgAalyiMnCQihooRqMklmQo93izf7TBTxHiGKEIF4MBALU6ZM8SFy0c1CYE888UQfXskkGe9HNItofBKI1yi6pZXqIDwNwUMpDSbXto4yr3gkxJG1bKz14/6LiRmylxJ2iEeQNYD9+/f3TLJmWy3HoiQEIQEL92tr+KLnKVc8JoW5cl7sjvgz7zITdNau4pHlpUCeNY9k3qW/YUPzdpcqHi1sFW9XUthtEuNyw1bp/7xEIBzVXpjEQ4EtbBVvJ88JSZXyblmep3jo6cqVK71IJKkRHkD6DIKSNZrFxFz8GS21VEf0O4R+wouBtOuV0tbo9wZJkHj2WI/Mv3hakzzlefnr+OwENE5nZ6U9RSA0AhKPoVlE7clNQINSboSZTsDkD1HCD+GZhTbEEoIiXkOP/fFAIOwIg8OLx6SV8g2WEdXOmSdhDl4vm7j37NnTTx47duyYa80jApZwStay2fkKTZ6jk2QmyHhI8ZyliddMRiiyk3lx8S6xTjG+lSseCSGMrkc1OyKi8aIhhCidUay+H1441oIioONhq4Xqedq6WfPClSoeyezLusI2bdo0a38hjOWKR4QzWWfNyxUtjRJNmGPnjyeNKtf2WZ6nuHjcsWOH5zJo0CC/ppQEP9iXEjJpYs5CsGlvqeKRY6ICjvWdadcrpa1R8cjaRgQk12Bdbvza8Zqt5fLXcdkJaJzOzkp7ikBoBCQeQ7OI2pObgAal3AhLOgHiaM2aNW7t2rW+NiDZIQlRI5slIWl9+/b1pSMKbVaDkHBW1rVZKYbo/nnFo9WmxFtiNRDTxFuxNY+s+0QAErpqiU4KTZ5JdoKYwBNrZSy4t7Trl2SE2M5W2gKvMBNjq8MZ3a1c8UipB7yA/HDeaKkO1pWZR8o8j/FaoCTyQQAiHJLWxyWJR6thyZpH82yWKh6j5+DlBELCyl/YPXBP1Lxk/R9hlOWKR8I/qU+KkKaeJFtSEiKzE2GgeEOjGWCNEy9WeKlCyGWWLe15iotHPKAIf55fq92Jh37nzp2pYi6PeCzH81hKW008woP7gm3UWyrPY5beVLl9NE5Xjq3OLAKVJiDxWGnCOn+rE9Cg1OrImy5YzNtUqFWEJJJJkYygSSULbBJYyCOVFraK55HN1uAx4WVSz4SSkE7E0PDhw71HKrqxJou6f3jRCFElLDdaPJ3wvqgwSxIz69at8xNwPCbR+oGVEI94r2gzyUhWr17tw0Tja0xbQjxyDspIIIoIv8V+cLGkK3ia2ezeWZNqobowIvSQdYCsxWRiT41Ns1HS2tY9e/a4jRs3evtRlxGRhaDi91dffdX16dOnKTtq2gsHRD9ilnDS3r17+3YhSOz8hG0SPm0vBMoVj9gAAWZerkLikb/jUWVNLGIN8Y3opJ0k0kHoXXnllb5GZLt27TI92GnPU1LGVMuUS7ut1EpaAptSw1ajax7x2vO8E2abdc2jXS9rW+17g/5CX4t74CUeM3Wniu2kcbpiaHViEag4AYnHMhBbyBWTolLDjaxAMbXhkgqTMyljkGOg5DpMdCmgzpoUJjTFPDhl3EpdHqJBqXpmLUc84vXBE8SkMFrbMU0I2OdZxSPXYU0mnkd+CGVDPBbLHGnXsGQ8Jh75ezTckt/jk21EAGsiec7xwvETXffX0p5HQg1pJxNyvjO4HoK30Fau55HMshdffLHPfgk7BBe1EVnT2aNHj70uR6bXqVOn+oQs8KFdZJwdN26co65ivLRHoYQ5JMsZMmSI93ZyDQQ5IbKEgE6fPj3xPgt5q+07FuH66aef+vBjsr8SVo1HlHPG+1ZU4NpnSeLD+mK0nqntn+R5tM/gxLF48OkX9r2Pt5HvffOQZnmy056nJPFIUimeB2qVWkhyS4vHeNthzosZ6zdZr5e1rVHxyPdLPNuwxGOW3lS5fTROV46tziwClSYg8VgGYQZ5Jmm8sWaiwSQyy1vhaNhUUoZFhKVNNjkvCRSY2PCmnn+ZDLIuLJ5ivoxbqOtDNCjVlnmtwDwek/haumrfiU34C2UYrXb7WvP6xcRma7ZD1ypOIOTnSbYTASOgcVp9QQRql4DEY4m2sxp3JHro0qWLIw0/HhPqqaVtJCLgjfv27dv9+qe459HKH/BWPboeh3UxiMqtW7cmptxPu26jfa5BqbYszjNE/yZklYysIW0Sj/+zhsRjSD2zcFtCfp5qg6Ba2RoENE63BmVdQwQqQ0DisUSuhFpdd911PmyKOlf8n9ArvJHFPIKEqZJ5jwQT1MMiRCcqHimYzRqqTZs2+ZpxhHdFN0uDH61lV2LTG2Z3DUrhm5oC3XjzeC7I1NqvX7+mFPohtV7iUeIxpP5YqC218jzVAku1sXUIaJxuHc66ighUgoDEYwlUCTulODap+VmXiPeQ9TsIP8LtSAKRtBFGNHHiRF/TjTWSlDZgsI+KRybReF+4BucnW190szT1Eo/pBtOglM6o2nvwzJC4hHVnvITh5QtZLrWFS0Cex3Bto+cpXNuoZckENE6rZ4hA7RKQeCzBdpbFrm3btm7JkiWOJA7UUiN1fLHEOWT2Y60ihcQJW8VrGRePxZpha1goYVAooUgJt1H3u2pQqnsT6wZFQAREQARqmIDG6Ro2npre8AQkHkvoAhY6Om3atKa1WaRTHzNmjK9ll5Q4h1T/hKN269bN1w4jZLVU8Yj4pHA6NdusIHkJzW64XTUoNZzJdcMiIAIiIAI1REDjdA0ZS00VgRgBiceMXYL07qxvpAA6CXKsmLP9fdWqVT6UdeTIkU1ntCLIfMYx1ESzdORZPY8UXcdjybZw4UJfE0tbcQIalNRDREAEREAERCBcAhqnw7WNWiYCaQQkHtMI/fe5eRhJZBMvjkwx6AkTJjQrcM46SMJVCWul5hhbVvHI2kc8jtQ1o8bXnDlzfE0sbekENCilM9IeIiACIiACIlAtAhqnq0Ve1xWB/AQkHjMypMYi4arFtt69ezdlSqW8xtVXX+1DTSnBQZbVrOIRjyUFjUmO07NnT59gR8lEMhrKOZ/1FvGtTQREQAREQAREIDwCGqfDs4laJAJZCUg8ZiBFiOlVV13lvv76azd8+HDXpk2bZkd98MEHbs2aNV5gUqvuxRdfdJdeemnq2eP1Hnfu3Okzui5YsMANGzbMJ+JBQGrLTkCDUnZW2lMEREAEREAEWpuAxunWJq7riUDLEZB4zMCScgKEnY4aNcp7Affbb79mR1n9xz59+viyHQhO6jXGNxLmvPPOOw6RiBDt2LGjT4bTvn17Z2sk582b55PszJ4927Vr1y5DC7VLlIAGJfUHERABERABEQiXgMbpcG2jlolAGgGJxxRC0TIZhJ9ec801iUf88ssv7tprr/XCsNh+hdY8EmZJqOqDDz7os7E+/PDDfq2jttIJaFAqnZmOEAERKJ2A1b7kJR91e2fOnOnIyn3zzTf7cUCbCIhAMgGN0+oZIlC7BCQeU2z3/vvv+7WLeAjxKB599NEFj6DQOQluRo8e7Z544gl34IEHNtu3kHi0GpIbNmxweC+TjuVkZHy15Du12+0q23INSpXlq7OLgAj8PwGJR/UEESiPgMbp8rjpKBEIgYDEY4oVTBDefffdjv8X20xosg8hq2RmjW+FxGPWNZIk0WFNpLbCBDQoqXeIgAi0BoG4eOT7mezb8jy2Bn1do5YJaJyuZeup7Y1OQOKx0XtAHd6/BqU6NKpuSQQCJEAStcsuu8y1bdvWLVmyxP9Ql1cv+QI0lpoUFAGN00GZQ40RgZIISDyWhEs71wIBDUq1YCW1sTUJ/Pbbb34N3qJFi9zmzZtdly5dfHj9Pffc4w477LC9mvLhhx/6KIv33nvPff755+7ggw/2ofSs9yZsProWmxB61vixFRJMFr0R38f+zlrBSy65xJ+DaxJZwdrx6N9p/5NPPumeffZZt2nTJl8vl3sYNGiQ35+SSLZjq8GCAAAMB0lEQVSZN/CLL77wJY6ef/55161bt73u8ZtvvnFXXHGFv1404/W3337rs2SzPCFez9fKL5FZ29q2Y8cON3bsWLfvvvu6p556yq1evdovc1i8eHHTPbWmnXUtEagVAhqna8VSaqcINCcg8aheUXcENCjVnUl1QzkIRLM4I5QGDBjgNm7c6NauXesuv/xyt3DhQnfIIYf4Kzz33HM++zPbueee67M9kwzs7bffdggrPnvkkUeaMk4jHslGjXgaPHhwM8FlYfpLly5tJjDj4hGBeNNNN7l3333XXxuhivjj+jfeeKMXbAMHDnT9+/f35+IeEHKdO3f21z3ttNP83008chwb9xcvm8S5SEy2e/fuTOKRhGYIbQQym4lH/k6IKhm4Kau0fv16d+utt7rHHnvMnXHGGTmspkNFoL4JaJyub/vq7uqbgMRjfdu3Ie9Og1JDml03XYAAwm/MmDHee4hHjORfiLobbrjBvfbaa3599oUXXujLC1HP9scff/SC66yzzmo642effeY9bH/88Yf3/vXq1ct/hnh84403XN++fb2XknP169ev6TgTcjyTfB71TsbFo7UTTyICzDbWEE6YMMHddttt/vj999/ff4Rw43dE3f333+8zVUfF43HHHed++OEHL0Sj69U5jvNTXon76dGjhxeDeDILeR6p4Uv5JLyZUfGoTicCIlAeAY3T5XHTUSIQAgGJxxCsoDa0KAENSi2KUyercQJz5szx4aoTJ070ItI2Cznl8zvuuMOtWLHC74N3D8HGc2SbeRA//vhj98wzzzR51Uw8jh8/3pcauu+++7wnzraHHnrIkQzszDPP9DVyC4nHESNGuLvuust7Dclqffzxx/tT4Bnk74SXzp8/v5k3zxKNRRPUmGAdMmSIo64u6xJZi9ipUyd/TstsfeqppzqSnJkYLCQezSP63XffeU8sQjMaUlvj3UPNF4GqENA4XRXsuqgItAgBiccWwaiThERAg1JI1lBbQiOA5421eQi+33//3T399NM+5DS6IRa3bdvmEIusgUS8IbQ6dOiQKB4fffRRhwjt3r27e/zxx30Yp9W+xdOJGJw8eXKieHzhhRd82CwCkPBSatxGhau1a8+ePd6T+Mknnzg8oYS38oNHM0k8nnfeed4LOn36dH+P55xzjj8VYbb33nuvmzVrlg8vTROPrJm8/fbbfbu4Hms8JR5D69VqT60R0DhdaxZTe0XgfwQkHtUb6o6ABqW6M6luqIUIRJPXkCiH31lbaGINYUYYKCGkeP3YSJhDCOiuXbv870meR/6GF3DlypVNYa0Whor3EdFHDdwkz6PdGqGkCDquF91Ys4nXkp8vv/yy6SM8hUceeaQXtoXEI38ngQ2ilLDWv/76y4tmwlMRg6ylLCYe8TqSKAjRTCgvbCQeW6gz6jQNTUDjdEObXzdf4wQkHmvcgGp+cwIalNQrRCCZwPLly92bb77ptm7d6r2PCDCymJJIh+QzhLUirMh+ev755ztCO4866ij3999/+wQzhcJWEY8///yzF2MIUgQXonHZsmU+DJV/C4lHxNiWLVt80hu8k4SpmpiNJqqhjbSLtZg9e/b0azdfeuklLwwLicfZs2d7cYwQtjayrvOiiy7y92OJdAqteVywYIEP4YXR0KFD/RpPiUc9XSKQn4DG6fwMdQYRqBYBicdqkdd1K0ZAg1LF0OrEdUIAUUZpCcIxEVFkCn3ggQfctGnTfEgnwq+UNY8IM0Qm5S8QnJwLIYo4xWM4d+7cguIR4TZs2DCfaRVhi1gzUYeoHDVqlCNklUQ9JP2JbsXWPBK2SnkSxCyhtLSRcNcpU6b4MNZjjjmmqHicNGmSF6WE9FqGWYnHOnkAdBtVJ6BxuuomUANEoGwCEo9lo9OBoRLQoBSqZdSu1iawc+dOnwznq6++8mIxWu/QEsucdNJJ3utXLCST9Y6Ef+KBLBS2evrpp/sspoS+IrJIvjNjxgzvhbRw2WLZVq09eBUtK2y8jVZSBI4IYDKzkqinkOcR8WjnoG0fffSRzybLPRCSWsjzeMQRR7jDDz/cr/ckg+wJJ5zgTSfx2No9WNerVwIap+vVsrqvRiAg8dgIVm6we9Sg1GAG1+0WJBAVWHgD8aZR6oK/I7pYB4iHEG/f1KlTvefxlltu8clvrCTGTz/95MUZXr5jjz22oHikriHJaBB0JMj5888/HclmEKxZxCPrEQlZRcgiMhFq5nlkvSXid9CgQf5eaT8ZVNl/+/btRcWjJe5BNP7666/ew0kbrSwH54uHrZKEB6FMCRD2tU3iUQ+bCLQMAY3TLcNRZxGBahCQeKwGdV2zogQ0KFUUr05eYwTwthGaiheNMhz9+/f35SrwyHXu3LmppuO6dev8fps3b27aj6yrJMFBDHbt2tWLw2imUSvVYd5IE3tcCxFqJT+yiEew2rpLPIyEltI+PJhkRaXUBjUb+Yz9Nm3a5EaPHu3eeust17t3by86+cw8jRa2ynktJDcqfouJx/Xr17vhw4c3eUAlHmus06u5wRPQOB28idRAEShIQOJRnaPuCGhQqjuT6oZyEiBslXIaS5cu9R43hBh1EElic/LJJzedHdGHBxJBhnA85ZRTvEAbN26ce/nll93YsWO9Nw6PJVtcPOI9xLP3yiuv+CQzI0eO9PtlFY/RBDkW4kp4KeGn1KpE2FrbuXavXr2855RsrqyJ5Pck8bhq1Sq/H/UmaddBBx1U1PMIL9ZqsoYzusnzmLMj6nAR+I+Axml1BRGoXQISj7VrO7W8AAENSuoaIiACIiACIhAuAY3T4dpGLROBNAISj2mE9HnNEdCgVHMmU4NFQAREQAQaiIDG6QYytm617ghIPNadSXVDGpTUB0RABERABEQgXAIap8O1jVomAmkEJB7TCOnzmiOgQanmTKYGi4AIiIAINBABjdMNZGzdat0RkHisO5PqhjQoqQ+IgAiIgAiIQLgENE6Haxu1TATSCEg8phHS5zVHQINSzZlMDRYBERABEWggAhqnG8jYutW6IyDxWHcm1Q1pUFIfEAEREAEREIFwCWicDtc2apkIpBGQeEwjpM9rjoAGpZozmRosAiIgAiLQQAQ0TjeQsXWrdUdA4rHuTKob0qCkPiACIiACIiAC4RLQOB2ubdQyEUgjIPGYRkif1xwBDUo1ZzI1WAREQAREoIEIaJxuIGMHeKv0P235CEDw33///TffWXS0CARCQINSIIZQM0RABERABEQggYDGaXWLahJQ/8tHX57HfPx0dIAE9KUQoFHUJBEQAREQARH4j4DGaXWFahJQ/8tHX+IxHz8dHSABfSkEaBQ1SQREQAREQAQkHtUHAiCgeWI+I0g85uOnowMkoC+FAI2iJomACIiACIiAxKP6QAAENE/MZwSJx3z8dHSABPSlEKBR1CQREAEREAERkHhUHwiAgOaJ+Ywg8ZiPn44OkIC+FAI0ipokAiIgAiIgAhKP6gMBENA8MZ8RJB7z8dPRARLQl0KARlGTREAEREAEREDiUX0gAAKaJ+YzgsRjPn46OkAC+lII0ChqkgiIgAiIgAhIPKoPBEBA88R8RpB4zMdPRwdIQF8KARpFTRIBERABERABiUf1gQAIaJ6YzwgSj/n46egACehLIUCjqEkiIAIiIAIiIPGoPhAAAc0T8xlB4jEfPx0dIAF9KQRoFDVJBERABERABCQe1QcCIKB5Yj4jSDzm46ejAySgL4UAjaImiYAIiIAIiIDEo/pAAAQ0T8xnBInHfPx0dIAE9KUQoFHUJBEQAREQARGQeFQfCICA5on5jCDxmI+fjg6QgL4UAjSKmiQCIiACIiACEo/qAwEQ0DwxnxEkHvPx09EBEtCXQoBGUZNEQAREQAREQOJRfSAAApon5jOCxGM+fjo6QAL6UgjQKGqSCIiACIiACEg8qg8EQEDzxHxGkHjMx09HB0hAXwoBGkVNEgEREAEREAGJR/WBAAhonpjPCBKP+fjp6AAJ6EshQKOoSSIgAiIgAiIg8ag+EAABzRPzGUHiMR8/HR0gAX0pBGgUNUkEREAEREAEJB7VBwIgoHliPiM0icd8p9HRIiACIiACIiACIiACIiACIiAC9U7g/wBgMwujwRHAsQAAAABJRU5ErkJggg==;" vertex="1" parent="1">
          <mxGeometry x="160" y="390" width="1240" height="930" as="geometry" />
        </mxCell>
        <mxCell id="QvXpTpCXxzrsCJCGJff7-12" style="edgeStyle=orthogonalEdgeStyle;rounded=0;orthogonalLoop=1;jettySize=auto;html=1;exitX=0;exitY=0.5;exitDx=0;exitDy=0;entryX=0;entryY=0.5;entryDx=0;entryDy=0;" edge="1" parent="1" target="MUi1yYkGbGkddvzHHs3n-1">
          <mxGeometry relative="1" as="geometry">
            <mxPoint x="170" y="805.0967741935483" as="sourcePoint" />
          </mxGeometry>
        </mxCell>
        <mxCell id="QvXpTpCXxzrsCJCGJff7-18" style="edgeStyle=orthogonalEdgeStyle;rounded=0;orthogonalLoop=1;jettySize=auto;html=1;exitX=1;exitY=0.25;exitDx=0;exitDy=0;entryX=0;entryY=0.25;entryDx=0;entryDy=0;" edge="1" parent="1" source="MUi1yYkGbGkddvzHHs3n-1" target="QvXpTpCXxzrsCJCGJff7-16">
          <mxGeometry relative="1" as="geometry">
            <Array as="points">
              <mxPoint x="640" y="793" />
              <mxPoint x="640" y="843" />
            </Array>
          </mxGeometry>
        </mxCell>
        <mxCell id="MUi1yYkGbGkddvzHHs3n-1" value="&lt;span style=&quot;font-size: 14px;&quot;&gt;Программирование расписания&lt;br&gt;доступа&lt;br&gt;&lt;/span&gt;" style="html=1;align=center;verticalAlign=top;rounded=1;absoluteArcSize=1;arcSize=10;dashed=0;whiteSpace=wrap;" parent="1" vertex="1">
          <mxGeometry x="270" y="780" width="220" height="50" as="geometry" />
        </mxCell>
        <mxCell id="gx2m8ANJ89_CgAaHZRdq-5" value="&lt;font style=&quot;font-size: 11px;&quot;&gt;Данные умных&lt;br&gt;замков&lt;br&gt;&lt;/font&gt;" style="text;html=1;strokeColor=none;fillColor=none;align=center;verticalAlign=middle;whiteSpace=wrap;rounded=0;" parent="1" vertex="1">
          <mxGeometry x="150" y="790" width="140" height="30" as="geometry" />
        </mxCell>
        <mxCell id="QvXpTpCXxzrsCJCGJff7-14" style="edgeStyle=orthogonalEdgeStyle;rounded=0;orthogonalLoop=1;jettySize=auto;html=1;exitX=0;exitY=0.5;exitDx=0;exitDy=0;entryX=0;entryY=0.5;entryDx=0;entryDy=0;" edge="1" parent="1" target="QvXpTpCXxzrsCJCGJff7-13">
          <mxGeometry relative="1" as="geometry">
            <mxPoint x="170" y="925.0967741935483" as="sourcePoint" />
          </mxGeometry>
        </mxCell>
        <mxCell id="QvXpTpCXxzrsCJCGJff7-19" style="edgeStyle=orthogonalEdgeStyle;rounded=0;orthogonalLoop=1;jettySize=auto;html=1;exitX=1;exitY=0.75;exitDx=0;exitDy=0;entryX=0;entryY=0.75;entryDx=0;entryDy=0;" edge="1" parent="1" source="QvXpTpCXxzrsCJCGJff7-13" target="QvXpTpCXxzrsCJCGJff7-16">
          <mxGeometry relative="1" as="geometry">
            <Array as="points">
              <mxPoint x="650" y="937" />
              <mxPoint x="650" y="867" />
            </Array>
          </mxGeometry>
        </mxCell>
        <mxCell id="QvXpTpCXxzrsCJCGJff7-13" value="&lt;span style=&quot;font-size: 14px;&quot;&gt;Программирование системных настроек&lt;br&gt;&lt;/span&gt;" style="html=1;align=center;verticalAlign=top;rounded=1;absoluteArcSize=1;arcSize=10;dashed=0;whiteSpace=wrap;" vertex="1" parent="1">
          <mxGeometry x="270" y="900" width="220" height="50" as="geometry" />
        </mxCell>
        <mxCell id="QvXpTpCXxzrsCJCGJff7-15" value="&lt;font style=&quot;font-size: 11px;&quot;&gt;Данные умных&lt;br&gt;замков&lt;br&gt;&lt;/font&gt;" style="text;html=1;strokeColor=none;fillColor=none;align=center;verticalAlign=middle;whiteSpace=wrap;rounded=0;" vertex="1" parent="1">
          <mxGeometry x="150" y="910" width="140" height="30" as="geometry" />
        </mxCell>
        <mxCell id="QvXpTpCXxzrsCJCGJff7-22" style="edgeStyle=orthogonalEdgeStyle;rounded=0;orthogonalLoop=1;jettySize=auto;html=1;exitX=1;exitY=0.5;exitDx=0;exitDy=0;" edge="1" parent="1" source="QvXpTpCXxzrsCJCGJff7-16" target="QvXpTpCXxzrsCJCGJff7-17">
          <mxGeometry relative="1" as="geometry" />
        </mxCell>
        <mxCell id="QvXpTpCXxzrsCJCGJff7-16" value="&lt;span style=&quot;font-size: 14px;&quot;&gt;Проверка &lt;br&gt;работоспособности&lt;br&gt;&lt;/span&gt;" style="html=1;align=center;verticalAlign=top;rounded=1;absoluteArcSize=1;arcSize=10;dashed=0;whiteSpace=wrap;" vertex="1" parent="1">
          <mxGeometry x="670" y="830" width="220" height="50" as="geometry" />
        </mxCell>
        <mxCell id="QvXpTpCXxzrsCJCGJff7-24" style="edgeStyle=orthogonalEdgeStyle;rounded=0;orthogonalLoop=1;jettySize=auto;html=1;exitX=1;exitY=0.5;exitDx=0;exitDy=0;" edge="1" parent="1" source="QvXpTpCXxzrsCJCGJff7-17">
          <mxGeometry relative="1" as="geometry">
            <mxPoint x="1380" y="855" as="targetPoint" />
          </mxGeometry>
        </mxCell>
        <mxCell id="QvXpTpCXxzrsCJCGJff7-17" value="&lt;span style=&quot;font-size: 14px;&quot;&gt;Взаимодействие с умными&lt;br&gt;замками&lt;br&gt;&lt;/span&gt;" style="html=1;align=center;verticalAlign=top;rounded=1;absoluteArcSize=1;arcSize=10;dashed=0;whiteSpace=wrap;" vertex="1" parent="1">
          <mxGeometry x="1020" y="830" width="220" height="50" as="geometry" />
        </mxCell>
        <mxCell id="QvXpTpCXxzrsCJCGJff7-20" value="&lt;font style=&quot;font-size: 11px;&quot;&gt;Обновленное расписание&lt;br&gt;доступа&lt;br&gt;&lt;/font&gt;" style="text;html=1;strokeColor=none;fillColor=none;align=center;verticalAlign=middle;whiteSpace=wrap;rounded=0;" vertex="1" parent="1">
          <mxGeometry x="500" y="780" width="140" height="30" as="geometry" />
        </mxCell>
        <mxCell id="QvXpTpCXxzrsCJCGJff7-21" value="&lt;font style=&quot;font-size: 11px;&quot;&gt;Обновленное системные настройки&lt;br&gt;&lt;/font&gt;" style="text;html=1;strokeColor=none;fillColor=none;align=center;verticalAlign=middle;whiteSpace=wrap;rounded=0;" vertex="1" parent="1">
          <mxGeometry x="500" y="920" width="140" height="30" as="geometry" />
        </mxCell>
        <mxCell id="QvXpTpCXxzrsCJCGJff7-25" style="edgeStyle=orthogonalEdgeStyle;rounded=0;orthogonalLoop=1;jettySize=auto;html=1;exitX=1;exitY=0.25;exitDx=0;exitDy=0;entryX=1;entryY=0.25;entryDx=0;entryDy=0;" edge="1" parent="1" target="QvXpTpCXxzrsCJCGJff7-23">
          <mxGeometry relative="1" as="geometry">
            <mxPoint x="640" y="820" as="sourcePoint" />
            <Array as="points">
              <mxPoint x="761" y="821" />
              <mxPoint x="1000" y="820" />
              <mxPoint x="1000" y="848" />
            </Array>
          </mxGeometry>
        </mxCell>
        <mxCell id="QvXpTpCXxzrsCJCGJff7-26" style="edgeStyle=orthogonalEdgeStyle;rounded=0;orthogonalLoop=1;jettySize=auto;html=1;entryX=1;entryY=1;entryDx=0;entryDy=0;" edge="1" parent="1" target="QvXpTpCXxzrsCJCGJff7-23">
          <mxGeometry relative="1" as="geometry">
            <mxPoint x="650" y="930" as="sourcePoint" />
            <Array as="points">
              <mxPoint x="1000" y="930" />
              <mxPoint x="1000" y="870" />
            </Array>
          </mxGeometry>
        </mxCell>
        <mxCell id="QvXpTpCXxzrsCJCGJff7-23" value="&lt;font style=&quot;font-size: 11px;&quot;&gt;Результат&lt;br&gt;проверки&lt;br&gt;&lt;/font&gt;" style="text;html=1;strokeColor=none;fillColor=none;align=center;verticalAlign=middle;whiteSpace=wrap;rounded=0;" vertex="1" parent="1">
          <mxGeometry x="880" y="840" width="140" height="30" as="geometry" />
        </mxCell>
        <mxCell id="QvXpTpCXxzrsCJCGJff7-27" value="&lt;font style=&quot;font-size: 11px;&quot;&gt;Данные настроенных умных замков&lt;br&gt;&lt;/font&gt;" style="text;html=1;strokeColor=none;fillColor=none;align=center;verticalAlign=middle;whiteSpace=wrap;rounded=0;" vertex="1" parent="1">
          <mxGeometry x="1240" y="840" width="140" height="30" as="geometry" />
        </mxCell>
        <mxCell id="QvXpTpCXxzrsCJCGJff7-28" value="421" style="text;html=1;strokeColor=none;fillColor=none;align=center;verticalAlign=middle;whiteSpace=wrap;rounded=0;" vertex="1" parent="1">
          <mxGeometry x="450" y="810" width="60" height="30" as="geometry" />
        </mxCell>
        <mxCell id="QvXpTpCXxzrsCJCGJff7-29" value="422" style="text;html=1;strokeColor=none;fillColor=none;align=center;verticalAlign=middle;whiteSpace=wrap;rounded=0;" vertex="1" parent="1">
          <mxGeometry x="450" y="930" width="60" height="30" as="geometry" />
        </mxCell>
        <mxCell id="QvXpTpCXxzrsCJCGJff7-30" value="423" style="text;html=1;strokeColor=none;fillColor=none;align=center;verticalAlign=middle;whiteSpace=wrap;rounded=0;" vertex="1" parent="1">
          <mxGeometry x="850" y="860" width="60" height="30" as="geometry" />
        </mxCell>
        <mxCell id="QvXpTpCXxzrsCJCGJff7-31" value="424" style="text;html=1;strokeColor=none;fillColor=none;align=center;verticalAlign=middle;whiteSpace=wrap;rounded=0;" vertex="1" parent="1">
          <mxGeometry x="1200" y="860" width="60" height="30" as="geometry" />
        </mxCell>
      </root>
    </mxGraphModel>
  </diagram>
  <diagram id="30CSTh-y9SVbLgZfz-_A" name="Страница — 2">
    <mxGraphModel dx="1624" dy="840" grid="1" gridSize="10" guides="1" tooltips="1" connect="1" arrows="1" fold="1" page="1" pageScale="1" pageWidth="3300" pageHeight="2339" math="0" shadow="0">
      <root>
        <mxCell id="0" />
        <mxCell id="1" parent="0" />
      </root>
    </mxGraphModel>
  </diagram>
</mxfile>
